<?xml version="1.0" encoding="utf-8"?>
<!-- Generator: Adobe Illustrator 16.0.0, SVG Export Plug-In . SVG Version: 6.00 Build 0)  -->
<!DOCTYPE svg PUBLIC "-//W3C//DTD SVG 1.1//EN" "http://www.w3.org/Graphics/SVG/1.1/DTD/svg11.dtd">
<svg version="1.1" id="Layer_1" xmlns="http://www.w3.org/2000/svg" xmlns:xlink="http://www.w3.org/1999/xlink" x="0px" y="0px"
	 width="2000px" height="753px" viewBox="0 0 2000 753" enable-background="new 0 0 2000 753" xml:space="preserve">
<rect fill="#F0E115" width="2000" height="753"/>
<g>
	<path fill="#1D6C94" d="M1789.997,21.3c-0.349-0.001-0.695-0.011-1.044-0.001c-0.812,0.02-1.631,0.006-2.44,0.084
		c-1.021,0.101-1.898,0.595-2.755,1.138c-0.969,0.611-1.76,1.402-2.448,2.307c-0.021,0.027-0.041,0.057-0.055,0.089
		c-0.677,1.512-1.376,3.014-2.02,4.539c-0.55,1.302-0.891,2.671-1.153,4.06c-0.255,1.354-0.446,2.716-0.535,4.09
		c-0.149,2.287,0.394,4.403,1.593,6.348c0.853,1.381,1.918,2.591,3.075,3.719c1.742,1.7,3.628,3.223,5.706,4.493
		c1.912,1.167,4.007,1.715,6.235,1.835c1.894,0.102,3.708-0.248,5.494-0.84c1.03-0.341,2.066-0.663,3.043-1.144
		c1.495-0.735,2.758-1.776,3.883-2.988c0.525-0.565,1.025-1.156,1.517-1.752c1.061-1.291,1.636-2.8,1.956-4.419
		c0.05-0.244,0.098-0.484,0.148-0.727c0.036-0.354,0.072-0.705,0.109-1.058c-0.005-0.034-0.017-0.067-0.02-0.102
		c-0.054-0.455-0.078-0.917-0.171-1.364c-0.192-0.911-0.597-1.75-0.945-2.606c-0.446-1.092-1.155-1.974-2.084-2.679
		c-1.699-1.288-3.578-2.194-5.673-2.616c-0.43-0.085-0.876-0.108-1.315-0.134c-0.228-0.013-0.46,0.037-0.688,0.044
		c-0.369,0.01-0.53-0.112-0.621-0.47c-0.048-0.182-0.078-0.369-0.105-0.556c-0.176-1.22-0.372-2.436-0.801-3.6
		c-0.999-2.724-2.919-4.47-5.678-5.321c-0.308-0.095-0.625-0.158-0.938-0.236C1790.843,21.39,1790.42,21.345,1789.997,21.3"/>
	<path fill="#1D6C94" d="M1764.162,43.928c0.062,0.172,0.113,0.351,0.194,0.516c0.182,0.367,0.531,0.534,0.894,0.676
		c0.458,0.181,0.94,0.268,1.432,0.284c0.427,0.015,0.843-0.069,1.245-0.212c0.867-0.305,1.688-0.711,2.478-1.174
		c0.62-0.368,1.219-0.778,1.825-1.17c0.364-0.236,0.734-0.468,1.088-0.716c0.494-0.347,0.785-0.842,0.993-1.386
		c0.145-0.374,0.334-0.732,0.366-1.141c0.024-0.311-0.194-0.652-0.49-0.771c-0.409-0.165-0.832-0.271-1.273-0.29
		c-0.341-0.016-0.68,0.023-0.998,0.151c-0.955,0.382-1.905,0.777-2.857,1.159c-0.936,0.373-1.85,0.783-2.732,1.263
		c-0.526,0.285-0.93,0.703-1.304,1.152c-0.221,0.268-0.438,0.537-0.652,0.81c-0.06,0.075-0.097,0.166-0.145,0.249L1764.162,43.928z"
		/>
	<path fill="#1D6C94" d="M1796.677,66.216c0.396-0.039,0.788-0.112,1.13-0.336c0.188-0.125,0.382-0.277,0.505-0.465
		c0.393-0.613,0.731-1.259,0.929-1.972c0.121-0.439,0.127-0.879,0.092-1.327c-0.073-0.988-0.135-1.979-0.216-2.966
		c-0.024-0.284-0.084-0.568-0.163-0.841c-0.118-0.427-0.396-0.715-0.815-0.805c-0.358-0.076-0.725-0.141-1.087-0.147
		c-0.573-0.011-1.05,0.257-1.436,0.693c-0.475,0.531-0.74,1.179-0.955,1.854c-0.557,1.738-0.512,3.478-0.048,5.217
		c0.06,0.224,0.207,0.393,0.391,0.498c0.325,0.184,0.669,0.333,1.004,0.495c0.04,0.019,0.08,0.031,0.121,0.046
		C1796.311,66.177,1796.494,66.198,1796.677,66.216"/>
	<path fill="#1D6C94" d="M1790.053,58.05c0.066-0.789-0.032-1.524-0.475-2.181c-0.647-0.961-1.855-1.304-2.889-0.813
		c-0.332,0.159-0.589,0.41-0.744,0.756c-0.473,1.074-0.912,2.162-1.184,3.312c-0.209,0.888-0.314,1.786-0.238,2.7
		c0.051,0.596,0.336,1.018,0.856,1.271c0.598,0.29,1.205,0.432,1.856,0.193c0.3-0.111,0.566-0.282,0.748-0.553
		c0.716-1.069,1.373-2.173,1.763-3.422C1789.873,58.9,1789.952,58.471,1790.053,58.05"/>
	<path fill="#1D6C94" d="M1772.721,54.921c1.797,0.211,3.461-0.157,4.982-1.121c0.996-0.631,1.4-1.557,1.336-2.698
		c-0.022-0.428-0.211-0.792-0.544-1.069c-0.174-0.147-0.371-0.269-0.567-0.386c-0.218-0.13-0.421-0.258-0.545-0.497
		c-0.151-0.281-0.387-0.372-0.721-0.258c-0.518,0.177-1.036,0.366-1.532,0.594c-1.54,0.707-2.84,1.727-3.931,3.004
		c-0.254,0.295-0.524,0.575-0.652,0.954c-0.15,0.455-0.02,0.817,0.398,1.064c0.364,0.217,0.781,0.273,1.189,0.35
		C1772.327,54.893,1772.525,54.901,1772.721,54.921"/>
	<path fill="#1D6C94" d="M1888.215-4.609c-0.613,0.127-1.229,0.241-1.837,0.387c-1.429,0.339-2.874,0.619-4.271,1.063
		c-1.762,0.561-3.125,1.762-4.434,3.036c-1.478,1.443-2.572,3.134-3.446,4.984c-0.026,0.058-0.054,0.117-0.066,0.178
		c-0.623,2.919-1.295,5.827-1.855,8.756c-0.482,2.502-0.571,5.045-0.513,7.59c0.055,2.481,0.229,4.954,0.588,7.41
		c0.594,4.084,2.344,7.612,5.188,10.592c2.019,2.115,4.352,3.848,6.813,5.405c3.706,2.341,7.6,4.321,11.741,5.779
		c3.805,1.341,7.706,1.523,11.676,0.899c3.375-0.529,6.444-1.826,9.367-3.537c1.689-0.988,3.396-1.943,4.939-3.158
		c2.355-1.855,4.194-4.163,5.722-6.72c0.716-1.195,1.378-2.422,2.019-3.659c1.386-2.671,1.831-5.547,1.792-8.523
		c-0.007-0.443-0.009-0.888-0.013-1.333c-0.067-0.636-0.134-1.271-0.201-1.906c-0.024-0.057-0.052-0.113-0.072-0.173
		c-0.27-0.782-0.484-1.588-0.816-2.34c-0.68-1.534-1.706-2.86-2.642-4.24c-1.194-1.756-2.771-3.047-4.677-3.941
		c-3.475-1.633-7.126-2.528-10.977-2.485c-0.791,0.009-1.585,0.138-2.369,0.256c-0.406,0.062-0.795,0.236-1.199,0.334
		c-0.645,0.156-0.976,0.002-1.271-0.593c-0.148-0.305-0.275-0.622-0.393-0.941c-0.767-2.085-1.571-4.155-2.76-6.045
		c-2.781-4.428-6.821-6.786-12-7.251c-0.579-0.052-1.163-0.044-1.747-0.064C1889.742-4.771,1888.979-4.689,1888.215-4.609"/>
	<path fill="#1D6C94" d="M1851.155,44.953c0.18,0.279,0.335,0.575,0.539,0.834c0.458,0.58,1.136,0.744,1.825,0.858
		c0.879,0.149,1.762,0.119,2.634-0.036c0.758-0.134,1.459-0.439,2.113-0.836c1.413-0.864,2.71-1.888,3.925-3.001
		c0.961-0.88,1.859-1.827,2.782-2.746c0.553-0.554,1.115-1.097,1.648-1.669c0.741-0.795,1.069-1.778,1.233-2.817
		c0.111-0.71,0.312-1.414,0.216-2.146c-0.074-0.559-0.586-1.079-1.151-1.178c-0.784-0.137-1.571-0.163-2.354-0.033
		c-0.606,0.1-1.19,0.296-1.704,0.641c-1.539,1.032-3.062,2.082-4.603,3.113c-1.506,1.008-2.968,2.073-4.342,3.25
		c-0.818,0.701-1.375,1.586-1.866,2.521c-0.288,0.552-0.571,1.109-0.846,1.67c-0.075,0.154-0.109,0.329-0.162,0.493
		C1851.081,44.232,1851.117,44.592,1851.155,44.953"/>
	<path fill="#1D6C94" d="M1916.818,72.057c0.685-0.218,1.348-0.493,1.866-1.017c0.285-0.29,0.569-0.632,0.713-1.009
		c0.465-1.227,0.815-2.492,0.898-3.825c0.051-0.815-0.104-1.598-0.332-2.374c-0.501-1.714-0.978-3.436-1.493-5.146
		c-0.148-0.492-0.363-0.969-0.601-1.422c-0.37-0.708-0.969-1.11-1.741-1.112c-0.659-0.004-1.329,0.025-1.973,0.148
		c-1.013,0.194-1.75,0.844-2.271,1.756c-0.635,1.117-0.859,2.358-0.986,3.628c-0.33,3.272,0.401,6.32,1.871,9.212
		c0.19,0.375,0.513,0.616,0.876,0.732c0.64,0.202,1.301,0.334,1.953,0.495c0.075,0.019,0.152,0.025,0.229,0.038
		C1916.158,72.125,1916.489,72.092,1916.818,72.057"/>
	<path fill="#1D6C94" d="M1902.082,60.145c-0.178-1.413-0.628-2.674-1.654-3.668c-1.498-1.452-3.756-1.604-5.394-0.35
		c-0.527,0.403-0.888,0.942-1.029,1.611c-0.43,2.07-0.8,4.152-0.845,6.281c-0.037,1.643,0.113,3.266,0.592,4.848
		c0.312,1.03,0.975,1.667,1.986,1.919c1.159,0.288,2.287,0.309,3.342-0.356c0.489-0.306,0.893-0.707,1.112-1.253
		c0.861-2.154,1.606-4.348,1.822-6.693C1902.086,61.71,1902.062,60.925,1902.082,60.145"/>
	<path fill="#1D6C94" d="M1870.362,61.124c3.247-0.302,6.042-1.573,8.358-3.842c1.521-1.489,1.886-3.27,1.35-5.259
		c-0.2-0.743-0.672-1.316-1.361-1.681c-0.361-0.192-0.754-0.334-1.146-0.467c-0.432-0.147-0.836-0.299-1.148-0.671
		c-0.37-0.439-0.819-0.51-1.365-0.185c-0.847,0.507-1.688,1.03-2.479,1.619c-2.448,1.825-4.354,4.108-5.802,6.769
		c-0.336,0.614-0.71,1.208-0.79,1.926c-0.097,0.857,0.27,1.447,1.098,1.727c0.726,0.245,1.48,0.188,2.228,0.169
		C1869.656,61.221,1870.009,61.16,1870.362,61.124"/>
	<path fill="#1D6C94" d="M1836.142,77.142c-0.347-0.001-0.694-0.012-1.043-0.001c-0.812,0.02-1.63,0.005-2.439,0.083
		c-1.021,0.102-1.9,0.595-2.757,1.138c-0.968,0.611-1.758,1.403-2.445,2.308c-0.021,0.027-0.043,0.057-0.057,0.089
		c-0.676,1.511-1.376,3.014-2.019,4.539c-0.549,1.302-0.893,2.671-1.154,4.06c-0.255,1.354-0.446,2.716-0.535,4.09
		c-0.148,2.286,0.395,4.402,1.595,6.348c0.851,1.38,1.918,2.591,3.074,3.72c1.742,1.7,3.626,3.223,5.705,4.493
		c1.912,1.167,4.01,1.715,6.236,1.835c1.892,0.102,3.706-0.248,5.492-0.84c1.03-0.341,2.068-0.662,3.046-1.144
		c1.493-0.736,2.755-1.776,3.881-2.988c0.524-0.565,1.027-1.157,1.517-1.753c1.061-1.291,1.635-2.8,1.957-4.42
		c0.049-0.242,0.097-0.483,0.147-0.725c0.036-0.354,0.073-0.705,0.111-1.058c-0.008-0.034-0.017-0.067-0.021-0.103
		c-0.056-0.454-0.079-0.917-0.172-1.363c-0.192-0.912-0.597-1.75-0.945-2.606c-0.446-1.092-1.153-1.975-2.084-2.68
		c-1.698-1.288-3.575-2.194-5.673-2.616c-0.428-0.085-0.875-0.108-1.314-0.134c-0.228-0.013-0.458,0.037-0.688,0.043
		c-0.369,0.011-0.53-0.112-0.62-0.469c-0.049-0.183-0.078-0.37-0.106-0.556c-0.175-1.22-0.374-2.436-0.801-3.601
		c-0.998-2.724-2.92-4.47-5.676-5.321c-0.309-0.095-0.629-0.158-0.94-0.235C1836.989,77.23,1836.564,77.186,1836.142,77.142"/>
	<path fill="#1D6C94" d="M1810.307,99.769c0.066,0.172,0.116,0.351,0.197,0.516c0.181,0.366,0.531,0.534,0.893,0.676
		c0.458,0.181,0.941,0.267,1.432,0.284c0.427,0.015,0.843-0.069,1.243-0.211c0.868-0.306,1.688-0.712,2.478-1.175
		c0.622-0.368,1.221-0.778,1.828-1.17c0.363-0.237,0.731-0.468,1.087-0.717c0.493-0.347,0.784-0.841,0.994-1.387
		c0.143-0.374,0.333-0.732,0.365-1.14c0.022-0.311-0.193-0.652-0.488-0.771c-0.411-0.165-0.836-0.27-1.276-0.289
		c-0.342-0.016-0.68,0.022-0.998,0.15c-0.955,0.383-1.904,0.778-2.856,1.159c-0.935,0.374-1.852,0.784-2.733,1.264
		c-0.523,0.285-0.928,0.703-1.303,1.152c-0.221,0.268-0.438,0.537-0.653,0.81c-0.059,0.075-0.098,0.165-0.145,0.249L1810.307,99.769
		z"/>
	<path fill="#1D6C94" d="M1842.822,122.057c0.397-0.039,0.788-0.112,1.129-0.336c0.19-0.125,0.383-0.277,0.504-0.465
		c0.394-0.613,0.731-1.26,0.931-1.973c0.12-0.438,0.127-0.879,0.093-1.327c-0.072-0.989-0.133-1.979-0.216-2.966
		c-0.025-0.285-0.086-0.569-0.162-0.841c-0.119-0.427-0.398-0.714-0.816-0.805c-0.358-0.078-0.724-0.141-1.089-0.147
		c-0.572-0.011-1.049,0.257-1.435,0.692c-0.473,0.531-0.739,1.179-0.955,1.854c-0.556,1.738-0.511,3.478-0.047,5.216
		c0.06,0.225,0.207,0.394,0.391,0.498c0.324,0.185,0.667,0.333,1.003,0.496c0.039,0.018,0.08,0.031,0.121,0.045
		C1842.455,122.02,1842.641,122.039,1842.822,122.057"/>
	<path fill="#1D6C94" d="M1836.198,113.892c0.065-0.789-0.032-1.524-0.475-2.182c-0.646-0.961-1.854-1.303-2.89-0.812
		c-0.332,0.158-0.589,0.41-0.741,0.756c-0.475,1.074-0.915,2.162-1.187,3.311c-0.209,0.889-0.313,1.787-0.237,2.702
		c0.051,0.595,0.336,1.017,0.858,1.27c0.596,0.29,1.205,0.432,1.854,0.193c0.302-0.11,0.565-0.281,0.748-0.552
		c0.716-1.068,1.375-2.174,1.764-3.422C1836.02,114.741,1836.098,114.312,1836.198,113.892"/>
	<path fill="#1D6C94" d="M1818.867,110.763c1.794,0.21,3.461-0.157,4.98-1.122c0.997-0.631,1.401-1.557,1.338-2.698
		c-0.021-0.427-0.212-0.791-0.544-1.07c-0.175-0.146-0.372-0.267-0.568-0.385c-0.218-0.13-0.421-0.258-0.545-0.497
		c-0.151-0.281-0.386-0.372-0.722-0.258c-0.517,0.177-1.035,0.365-1.532,0.593c-1.538,0.708-2.839,1.727-3.93,3.004
		c-0.252,0.294-0.523,0.574-0.652,0.953c-0.151,0.455-0.02,0.817,0.398,1.064c0.366,0.216,0.782,0.273,1.188,0.349
		C1818.473,110.734,1818.67,110.742,1818.867,110.763"/>
	<path fill="#1D6C94" d="M1742.479,72.36c-0.508,0.106-1.021,0.2-1.525,0.32c-1.181,0.283-2.381,0.514-3.535,0.882
		c-1.462,0.464-2.591,1.458-3.673,2.515c-1.225,1.195-2.133,2.595-2.856,4.129c-0.023,0.047-0.044,0.097-0.054,0.149
		c-0.518,2.417-1.072,4.827-1.539,7.253c-0.399,2.074-0.473,4.179-0.426,6.288c0.048,2.056,0.19,4.105,0.488,6.139
		c0.492,3.384,1.942,6.308,4.298,8.776c1.671,1.753,3.605,3.188,5.646,4.477c3.07,1.941,6.295,3.58,9.727,4.79
		c3.153,1.112,6.384,1.262,9.674,0.745c2.796-0.438,5.338-1.512,7.761-2.931c1.4-0.818,2.813-1.61,4.092-2.616
		c1.953-1.538,3.476-3.449,4.741-5.569c0.591-0.989,1.14-2.007,1.672-3.03c1.147-2.214,1.516-4.596,1.483-7.061
		c-0.004-0.369-0.007-0.737-0.013-1.106c-0.055-0.526-0.108-1.052-0.163-1.579c-0.021-0.047-0.044-0.093-0.062-0.143
		c-0.221-0.646-0.398-1.315-0.676-1.938c-0.562-1.27-1.413-2.37-2.189-3.513c-0.99-1.455-2.296-2.525-3.875-3.267
		c-2.878-1.352-5.902-2.093-9.094-2.057c-0.654,0.006-1.313,0.114-1.963,0.21c-0.336,0.052-0.657,0.197-0.992,0.278
		c-0.534,0.129-0.809,0.001-1.052-0.493c-0.125-0.252-0.228-0.515-0.325-0.779c-0.636-1.728-1.303-3.442-2.287-5.008
		c-2.305-3.669-5.65-5.623-9.941-6.008c-0.48-0.043-0.964-0.037-1.447-0.053C1743.742,72.228,1743.11,72.294,1742.479,72.36"/>
	<path fill="#1D6C94" d="M1711.774,113.422c0.148,0.231,0.277,0.476,0.446,0.69c0.379,0.481,0.942,0.616,1.514,0.712
		c0.728,0.121,1.458,0.097,2.18-0.03c0.627-0.112,1.209-0.364,1.748-0.694c1.174-0.715,2.249-1.565,3.255-2.487
		c0.796-0.729,1.54-1.514,2.304-2.275c0.46-0.457,0.928-0.909,1.369-1.384c0.612-0.659,0.884-1.471,1.02-2.333
		c0.092-0.589,0.259-1.171,0.18-1.777c-0.061-0.462-0.484-0.894-0.955-0.975c-0.648-0.114-1.3-0.135-1.948-0.029
		c-0.502,0.084-0.988,0.247-1.414,0.532c-1.273,0.855-2.537,1.725-3.812,2.579c-1.249,0.835-2.46,1.717-3.599,2.692
		c-0.678,0.581-1.138,1.316-1.545,2.088c-0.24,0.459-0.474,0.92-0.7,1.386c-0.062,0.128-0.092,0.271-0.137,0.408
		C1711.713,112.824,1711.742,113.123,1711.774,113.422"/>
	<path fill="#1D6C94" d="M1766.174,135.877c0.567-0.179,1.118-0.408,1.547-0.842c0.236-0.239,0.472-0.523,0.591-0.836
		c0.386-1.017,0.678-2.065,0.746-3.169c0.04-0.676-0.088-1.323-0.275-1.967c-0.417-1.42-0.812-2.847-1.239-4.263
		c-0.121-0.407-0.301-0.801-0.496-1.179c-0.307-0.586-0.803-0.918-1.442-0.921c-0.547-0.001-1.102,0.02-1.636,0.123
		c-0.838,0.162-1.45,0.699-1.881,1.457c-0.525,0.922-0.714,1.953-0.819,3.005c-0.27,2.711,0.335,5.236,1.552,7.631
		c0.157,0.311,0.423,0.511,0.727,0.606c0.53,0.168,1.077,0.278,1.618,0.411c0.062,0.015,0.127,0.021,0.188,0.031
		C1765.627,135.936,1765.902,135.906,1766.174,135.877"/>
	<path fill="#1D6C94" d="M1753.967,126.008c-0.147-1.17-0.521-2.215-1.372-3.039c-1.241-1.203-3.11-1.329-4.468-0.29
		c-0.437,0.333-0.734,0.78-0.851,1.335c-0.358,1.715-0.664,3.438-0.703,5.202c-0.029,1.363,0.096,2.708,0.493,4.018
		c0.257,0.854,0.805,1.382,1.645,1.59c0.96,0.238,1.894,0.255,2.768-0.294c0.404-0.253,0.74-0.586,0.922-1.039
		c0.712-1.785,1.33-3.602,1.512-5.546C1753.97,127.304,1753.951,126.655,1753.967,126.008"/>
	<path fill="#1D6C94" d="M1727.687,126.819c2.688-0.25,5.006-1.302,6.926-3.182c1.26-1.234,1.563-2.709,1.117-4.357
		c-0.166-0.617-0.557-1.089-1.128-1.393c-0.299-0.16-0.623-0.277-0.947-0.387c-0.357-0.121-0.693-0.247-0.954-0.554
		c-0.308-0.365-0.677-0.424-1.129-0.154c-0.702,0.419-1.4,0.853-2.056,1.342c-2.028,1.51-3.608,3.402-4.808,5.606
		c-0.277,0.51-0.585,1.002-0.652,1.596c-0.081,0.711,0.222,1.2,0.908,1.431c0.603,0.203,1.227,0.155,1.847,0.141
		C1727.102,126.901,1727.395,126.851,1727.687,126.819"/>
	<path fill="#1D6C94" d="M1699.443-37.795c-0.494,0.158-0.991,0.305-1.481,0.478c-1.145,0.403-2.313,0.761-3.426,1.247
		c-1.404,0.613-2.423,1.721-3.39,2.884c-1.092,1.316-1.849,2.805-2.408,4.406c-0.019,0.049-0.033,0.101-0.038,0.152
		c-0.262,2.459-0.563,4.914-0.772,7.376c-0.179,2.103-0.034,4.206,0.235,6.298c0.262,2.04,0.618,4.062,1.126,6.054
		c0.844,3.314,2.592,6.068,5.191,8.277c1.847,1.569,3.92,2.795,6.083,3.863c3.256,1.609,6.635,2.902,10.173,3.747
		c3.253,0.774,6.482,0.587,9.7-0.271c2.734-0.729,5.149-2.063,7.411-3.726c1.307-0.96,2.63-1.895,3.795-3.03
		c1.783-1.734,3.097-3.792,4.134-6.033c0.486-1.047,0.924-2.116,1.346-3.19c0.912-2.319,1.029-4.729,0.739-7.176
		c-0.044-0.366-0.085-0.732-0.127-1.099c-0.111-0.516-0.222-1.035-0.33-1.553c-0.023-0.044-0.053-0.089-0.074-0.135
		c-0.291-0.621-0.536-1.266-0.876-1.858c-0.692-1.204-1.651-2.209-2.546-3.264c-1.136-1.345-2.546-2.271-4.191-2.845
		c-3.006-1.042-6.091-1.464-9.26-1.096c-0.651,0.077-1.294,0.25-1.93,0.417c-0.331,0.085-0.635,0.264-0.959,0.379
		c-0.519,0.185-0.804,0.086-1.1-0.38c-0.147-0.237-0.28-0.488-0.404-0.74c-0.813-1.651-1.653-3.288-2.797-4.744
		c-2.675-3.407-6.21-5-10.516-4.934c-0.482,0.006-0.963,0.063-1.444,0.098C1700.687-38.059,1700.064-37.928,1699.443-37.795"/>
	<path fill="#1D6C94" d="M1673.2,6.251c0.171,0.215,0.325,0.445,0.517,0.641c0.428,0.437,1,0.512,1.578,0.549
		c0.736,0.045,1.461-0.056,2.167-0.258c0.612-0.176,1.164-0.487,1.666-0.873c1.092-0.834,2.071-1.79,2.976-2.812
		c0.716-0.808,1.373-1.666,2.054-2.504c0.411-0.503,0.826-1.001,1.216-1.519c0.539-0.72,0.725-1.557,0.771-2.428
		c0.03-0.595,0.135-1.191-0.008-1.786c-0.11-0.454-0.575-0.838-1.052-0.871c-0.657-0.044-1.307,0.001-1.942,0.177
		c-0.49,0.134-0.954,0.346-1.349,0.675c-1.178,0.983-2.343,1.981-3.521,2.963c-1.154,0.96-2.267,1.965-3.297,3.054
		c-0.612,0.648-0.996,1.427-1.317,2.239c-0.19,0.48-0.375,0.964-0.554,1.45c-0.049,0.134-0.062,0.28-0.091,0.42
		C1673.077,5.663,1673.139,5.958,1673.2,6.251"/>
	<path fill="#1D6C94" d="M1729.649,22.897c0.546-0.238,1.068-0.522,1.448-1c0.209-0.263,0.416-0.569,0.503-0.894
		c0.274-1.05,0.456-2.123,0.408-3.228c-0.03-0.677-0.226-1.308-0.479-1.928c-0.56-1.369-1.103-2.745-1.676-4.11
		c-0.165-0.393-0.384-0.767-0.619-1.119c-0.366-0.553-0.894-0.831-1.531-0.767c-0.543,0.054-1.092,0.136-1.612,0.294
		c-0.817,0.248-1.368,0.847-1.718,1.643c-0.427,0.974-0.505,2.019-0.5,3.075c0.014,2.724,0.878,5.174,2.34,7.428
		c0.188,0.292,0.475,0.463,0.784,0.527c0.547,0.109,1.104,0.164,1.655,0.24c0.061,0.008,0.127,0.006,0.19,0.011
		C1729.111,23.011,1729.381,22.954,1729.649,22.897"/>
	<path fill="#1D6C94" d="M1716.477,14.358c-0.27-1.149-0.75-2.149-1.682-2.878c-1.36-1.067-3.234-0.997-4.473,0.177
		c-0.4,0.379-0.65,0.854-0.709,1.418c-0.176,1.742-0.299,3.49-0.152,5.248c0.113,1.357,0.376,2.682,0.908,3.942
		c0.346,0.822,0.946,1.291,1.802,1.409c0.979,0.137,1.91,0.057,2.723-0.582c0.376-0.294,0.674-0.66,0.807-1.129
		c0.522-1.849,0.948-3.721,0.925-5.672C1716.617,15.647,1716.528,15.002,1716.477,14.358"/>
	<path fill="#1D6C94" d="M1690.426,17.912c2.648-0.531,4.842-1.82,6.554-3.891c1.124-1.357,1.272-2.856,0.657-4.448
		c-0.23-0.595-0.668-1.025-1.266-1.267c-0.316-0.128-0.651-0.21-0.984-0.286c-0.371-0.084-0.717-0.174-1.006-0.453
		c-0.344-0.332-0.721-0.35-1.141-0.035c-0.655,0.49-1.305,0.995-1.902,1.547c-1.86,1.716-3.233,3.763-4.197,6.08
		c-0.222,0.535-0.478,1.058-0.481,1.656c-0.007,0.715,0.347,1.17,1.053,1.328c0.62,0.138,1.235,0.026,1.852-0.054
		C1689.854,18.054,1690.138,17.972,1690.426,17.912"/>
	<path fill="#1D6C94" d="M1930.714,105.115c-0.414,0.201-0.834,0.393-1.242,0.603c-0.959,0.498-1.943,0.955-2.86,1.521
		c-1.157,0.713-1.918,1.813-2.623,2.956c-0.798,1.293-1.28,2.694-1.574,4.172c-0.009,0.045-0.017,0.093-0.017,0.138
		c0.076,2.194,0.114,4.391,0.235,6.582c0.101,1.872,0.488,3.702,0.986,5.508c0.48,1.763,1.044,3.496,1.736,5.186
		c1.15,2.809,3.029,5.015,5.589,6.637c1.817,1.151,3.79,1.973,5.825,2.646c3.063,1.012,6.193,1.732,9.41,2.037
		c2.957,0.28,5.773-0.285,8.498-1.437c2.313-0.979,4.271-2.451,6.057-4.193c1.028-1.007,2.077-1.992,2.962-3.132
		c1.352-1.747,2.253-3.718,2.889-5.815c0.298-0.981,0.553-1.977,0.79-2.972c0.514-2.153,0.32-4.286-0.237-6.403
		c-0.084-0.316-0.167-0.633-0.248-0.95c-0.162-0.442-0.319-0.883-0.481-1.324c-0.028-0.038-0.059-0.073-0.082-0.111
		c-0.332-0.51-0.628-1.048-1.001-1.525c-0.757-0.974-1.725-1.738-2.642-2.557c-1.164-1.042-2.519-1.682-4.038-1.981
		c-2.772-0.546-5.535-0.535-8.277,0.18c-0.564,0.147-1.107,0.38-1.646,0.604c-0.278,0.117-0.525,0.31-0.794,0.452
		c-0.435,0.228-0.699,0.176-1.015-0.197c-0.161-0.19-0.308-0.395-0.446-0.602c-0.92-1.353-1.863-2.687-3.046-3.825
		c-2.774-2.666-6.079-3.63-9.857-3.041c-0.424,0.066-0.839,0.176-1.259,0.265C1931.774,104.73,1931.246,104.922,1930.714,105.115"/>
	<path fill="#1D6C94" d="M1913.081,147.092c0.177,0.168,0.341,0.352,0.533,0.499c0.43,0.333,0.943,0.329,1.455,0.288
		c0.654-0.049,1.279-0.228,1.874-0.495c0.515-0.229,0.964-0.572,1.357-0.973c0.857-0.868,1.6-1.83,2.27-2.842
		c0.528-0.798,1.001-1.633,1.498-2.456c0.295-0.492,0.601-0.982,0.879-1.485c0.387-0.7,0.445-1.458,0.378-2.231
		c-0.046-0.526-0.029-1.064-0.227-1.568c-0.152-0.386-0.609-0.666-1.032-0.636c-0.584,0.042-1.15,0.164-1.687,0.395
		c-0.415,0.181-0.798,0.423-1.102,0.762c-0.914,1.01-1.817,2.031-2.731,3.041c-0.896,0.987-1.749,2.008-2.521,3.093
		c-0.461,0.646-0.699,1.377-0.882,2.131c-0.11,0.447-0.213,0.895-0.309,1.344c-0.026,0.124-0.019,0.254-0.027,0.382
		C1912.898,146.591,1912.99,146.842,1913.081,147.092"/>
	<path fill="#1D6C94" d="M1964.778,154.753c0.45-0.277,0.875-0.591,1.15-1.057c0.151-0.258,0.295-0.554,0.331-0.849
		c0.113-0.957,0.139-1.924-0.041-2.89c-0.108-0.591-0.359-1.121-0.658-1.635c-0.663-1.135-1.311-2.279-1.983-3.407
		c-0.191-0.325-0.431-0.627-0.683-0.909c-0.389-0.44-0.887-0.62-1.439-0.484c-0.471,0.115-0.943,0.254-1.383,0.457
		c-0.688,0.319-1.098,0.915-1.306,1.658c-0.257,0.909-0.196,1.837-0.062,2.766c0.349,2.394,1.412,4.44,2.975,6.242
		c0.204,0.234,0.478,0.349,0.757,0.366c0.492,0.03,0.989,0.009,1.482,0.007c0.057,0,0.113-0.009,0.17-0.015
		C1964.319,154.921,1964.549,154.837,1964.778,154.753"/>
	<path fill="#1D6C94" d="M1952.138,148.873c-0.378-0.978-0.925-1.796-1.833-2.324c-1.329-0.77-2.967-0.478-3.912,0.71
		c-0.305,0.381-0.467,0.83-0.446,1.332c0.058,1.555,0.167,3.106,0.513,4.634c0.267,1.18,0.661,2.313,1.286,3.355
		c0.406,0.681,0.99,1.017,1.759,1.017c0.877-0.001,1.687-0.187,2.322-0.849c0.294-0.305,0.511-0.663,0.569-1.093
		c0.233-1.69,0.374-3.388,0.111-5.102C1952.42,149.989,1952.263,149.433,1952.138,148.873"/>
	<path fill="#1D6C94" d="M1929.67,155.217c2.262-0.792,4.032-2.198,5.281-4.231c0.822-1.332,0.767-2.67,0.027-3.992
		c-0.275-0.495-0.714-0.82-1.269-0.958c-0.293-0.072-0.599-0.104-0.901-0.129c-0.335-0.028-0.65-0.064-0.939-0.274
		c-0.344-0.25-0.676-0.218-1.008,0.11c-0.515,0.513-1.023,1.037-1.481,1.598c-1.423,1.738-2.377,3.707-2.938,5.863
		c-0.13,0.5-0.29,0.99-0.221,1.516c0.082,0.63,0.45,0.985,1.092,1.038c0.561,0.044,1.089-0.13,1.619-0.276
		C1929.185,155.412,1929.425,155.307,1929.67,155.217"/>
	<path fill="#1D6C94" d="M1572.594,110.395c-0.348-0.001-0.694-0.01-1.042-0.001c-0.813,0.02-1.633,0.006-2.44,0.084
		c-1.021,0.102-1.9,0.596-2.756,1.138c-0.97,0.611-1.759,1.402-2.447,2.307c-0.022,0.027-0.043,0.057-0.056,0.089
		c-0.677,1.51-1.375,3.014-2.02,4.539c-0.55,1.302-0.891,2.671-1.154,4.06c-0.255,1.354-0.446,2.715-0.535,4.09
		c-0.149,2.286,0.395,4.402,1.594,6.347c0.852,1.382,1.918,2.592,3.075,3.72c1.742,1.701,3.627,3.223,5.705,4.494
		c1.912,1.167,4.008,1.715,6.237,1.835c1.893,0.102,3.707-0.248,5.493-0.84c1.03-0.341,2.066-0.663,3.043-1.144
		c1.496-0.735,2.758-1.776,3.883-2.988c0.525-0.565,1.025-1.156,1.518-1.753c1.06-1.29,1.633-2.799,1.956-4.419
		c0.048-0.242,0.096-0.483,0.146-0.725c0.036-0.354,0.073-0.705,0.11-1.059c-0.006-0.034-0.016-0.067-0.02-0.102
		c-0.056-0.455-0.078-0.917-0.172-1.364c-0.191-0.911-0.596-1.75-0.944-2.606c-0.446-1.092-1.154-1.974-2.085-2.679
		c-1.699-1.288-3.576-2.194-5.672-2.616c-0.43-0.085-0.876-0.108-1.314-0.134c-0.227-0.013-0.46,0.037-0.689,0.044
		c-0.37,0.01-0.529-0.112-0.621-0.47c-0.047-0.182-0.078-0.369-0.105-0.556c-0.176-1.22-0.373-2.436-0.8-3.6
		c-1-2.724-2.921-4.47-5.678-5.321c-0.308-0.095-0.628-0.158-0.94-0.236C1573.44,110.485,1573.018,110.44,1572.594,110.395"/>
	<path fill="#1D6C94" d="M1546.76,133.023c0.063,0.172,0.113,0.351,0.195,0.516c0.181,0.367,0.531,0.534,0.894,0.676
		c0.457,0.181,0.939,0.268,1.431,0.284c0.426,0.015,0.843-0.069,1.243-0.212c0.868-0.305,1.689-0.711,2.478-1.175
		c0.622-0.368,1.221-0.778,1.826-1.17c0.365-0.236,0.735-0.468,1.089-0.716c0.495-0.347,0.785-0.841,0.993-1.387
		c0.144-0.374,0.333-0.732,0.366-1.14c0.025-0.311-0.194-0.652-0.489-0.771c-0.41-0.165-0.833-0.271-1.273-0.29
		c-0.342-0.016-0.682,0.023-0.999,0.151c-0.955,0.382-1.904,0.777-2.858,1.159c-0.936,0.373-1.849,0.782-2.731,1.263
		c-0.525,0.285-0.93,0.703-1.305,1.152c-0.219,0.268-0.438,0.538-0.651,0.81c-0.06,0.075-0.097,0.166-0.144,0.25L1546.76,133.023z"
		/>
	<path fill="#1D6C94" d="M1579.273,155.312c0.396-0.039,0.789-0.113,1.13-0.337c0.188-0.124,0.384-0.277,0.505-0.465
		c0.394-0.613,0.731-1.259,0.929-1.972c0.122-0.439,0.127-0.879,0.094-1.327c-0.073-0.989-0.135-1.979-0.217-2.966
		c-0.023-0.284-0.084-0.568-0.162-0.841c-0.119-0.428-0.397-0.715-0.817-0.805c-0.357-0.077-0.724-0.141-1.087-0.147
		c-0.573-0.011-1.048,0.257-1.437,0.692c-0.473,0.532-0.74,1.18-0.954,1.854c-0.556,1.738-0.512,3.478-0.047,5.217
		c0.06,0.225,0.206,0.394,0.391,0.498c0.325,0.184,0.669,0.333,1.005,0.495c0.039,0.019,0.079,0.031,0.119,0.046
		C1578.908,155.274,1579.091,155.293,1579.273,155.312"/>
	<path fill="#1D6C94" d="M1572.65,147.145c0.066-0.789-0.034-1.524-0.476-2.181c-0.647-0.961-1.854-1.304-2.887-0.813
		c-0.333,0.159-0.592,0.41-0.745,0.756c-0.474,1.074-0.913,2.162-1.184,3.311c-0.209,0.889-0.314,1.787-0.238,2.701
		c0.051,0.595,0.336,1.018,0.855,1.271c0.598,0.29,1.207,0.432,1.858,0.193c0.298-0.111,0.564-0.282,0.747-0.553
		c0.716-1.069,1.373-2.174,1.761-3.422C1572.471,147.995,1572.551,147.566,1572.65,147.145"/>
	<path fill="#1D6C94" d="M1555.318,144.017c1.796,0.211,3.461-0.157,4.98-1.121c0.997-0.631,1.401-1.557,1.338-2.699
		c-0.022-0.427-0.212-0.791-0.544-1.07c-0.175-0.146-0.37-0.268-0.567-0.385c-0.217-0.13-0.42-0.258-0.547-0.497
		c-0.15-0.281-0.386-0.372-0.719-0.258c-0.518,0.178-1.035,0.366-1.532,0.594c-1.54,0.707-2.84,1.727-3.931,3.004
		c-0.254,0.295-0.526,0.575-0.653,0.953c-0.149,0.455-0.019,0.817,0.399,1.064c0.365,0.217,0.781,0.273,1.189,0.35
		C1554.925,143.989,1555.123,143.996,1555.318,144.017"/>
	<path fill="#1D6C94" d="M1972.957,530.39c0.042-0.334,0.093-0.667,0.125-1.005c0.079-0.786,0.188-1.574,0.209-2.363
		c0.023-0.997-0.348-1.901-0.767-2.793c-0.477-1.007-1.146-1.861-1.936-2.633c-0.023-0.023-0.05-0.047-0.079-0.065
		c-1.377-0.832-2.742-1.683-4.137-2.485c-1.19-0.684-2.47-1.177-3.778-1.595c-1.273-0.406-2.565-0.754-3.88-1.003
		c-2.186-0.414-4.292-0.144-6.311,0.782c-1.433,0.656-2.726,1.542-3.951,2.522c-1.846,1.478-3.538,3.113-5.01,4.967
		c-1.353,1.705-2.131,3.662-2.511,5.795c-0.324,1.812-0.202,3.604,0.155,5.396c0.207,1.034,0.395,2.073,0.742,3.071
		c0.531,1.529,1.384,2.87,2.42,4.099c0.481,0.574,0.993,1.128,1.509,1.673c1.118,1.176,2.506,1.907,4.029,2.41
		c0.228,0.074,0.453,0.151,0.681,0.227c0.337,0.079,0.672,0.156,1.008,0.232c0.034-0.001,0.066-0.007,0.102-0.006
		c0.444-0.001,0.893,0.033,1.336-0.004c0.9-0.077,1.757-0.366,2.625-0.603c1.105-0.298,2.041-0.875,2.831-1.689
		c1.442-1.484,2.542-3.186,3.194-5.158c0.135-0.403,0.209-0.831,0.288-1.253c0.04-0.218,0.019-0.446,0.039-0.668
		c0.033-0.356,0.17-0.498,0.527-0.545c0.181-0.021,0.363-0.03,0.546-0.033c1.199-0.023,2.396-0.07,3.567-0.343
		c2.746-0.64,4.659-2.286,5.807-4.842c0.127-0.286,0.227-0.587,0.339-0.88C1972.77,531.195,1972.864,530.792,1972.957,530.39"/>
	<path fill="#1D6C94" d="M1954.212,502.79c-0.175,0.04-0.353,0.069-0.52,0.127c-0.377,0.132-0.579,0.45-0.76,0.781
		c-0.229,0.421-0.369,0.875-0.444,1.349c-0.064,0.407-0.032,0.819,0.056,1.222c0.192,0.873,0.485,1.714,0.839,2.528
		c0.281,0.646,0.604,1.269,0.912,1.901c0.184,0.379,0.362,0.762,0.561,1.134c0.275,0.517,0.718,0.857,1.219,1.124
		c0.344,0.182,0.665,0.406,1.057,0.486c0.296,0.062,0.651-0.108,0.802-0.38c0.207-0.376,0.358-0.772,0.43-1.193
		c0.056-0.328,0.059-0.66-0.025-0.982c-0.257-0.963-0.524-1.926-0.778-2.892c-0.25-0.944-0.534-1.876-0.894-2.786
		c-0.212-0.539-0.567-0.978-0.957-1.391c-0.231-0.248-0.465-0.488-0.701-0.728c-0.066-0.064-0.15-0.112-0.225-0.168
		C1954.593,502.876,1954.402,502.833,1954.212,502.79"/>
	<path fill="#1D6C94" d="M1928.854,531.49c-0.01,0.387,0.014,0.773,0.19,1.13c0.098,0.197,0.223,0.401,0.39,0.542
		c0.542,0.453,1.127,0.853,1.792,1.129c0.406,0.169,0.832,0.228,1.268,0.25c0.961,0.045,1.922,0.105,2.885,0.142
		c0.276,0.013,0.557-0.015,0.831-0.056c0.426-0.062,0.735-0.3,0.873-0.69c0.116-0.336,0.22-0.682,0.271-1.032
		c0.078-0.551-0.123-1.04-0.495-1.467c-0.457-0.519-1.051-0.854-1.677-1.142c-1.609-0.741-3.291-0.905-5.023-0.664
		c-0.225,0.029-0.405,0.152-0.527,0.318c-0.215,0.29-0.398,0.602-0.596,0.906c-0.022,0.036-0.039,0.074-0.059,0.111
		C1928.936,531.143,1928.896,531.316,1928.854,531.49"/>
	<path fill="#1D6C94" d="M1937.516,526.074c0.753,0.156,1.474,0.148,2.161-0.198c1.005-0.509,1.478-1.633,1.128-2.688
		c-0.114-0.34-0.326-0.617-0.643-0.808c-0.978-0.583-1.974-1.137-3.051-1.536c-0.832-0.306-1.686-0.516-2.576-0.55
		c-0.579-0.021-1.021,0.203-1.326,0.676c-0.351,0.54-0.56,1.109-0.407,1.764c0.071,0.303,0.203,0.581,0.444,0.789
		c0.946,0.817,1.934,1.582,3.09,2.106C1936.719,525.801,1937.122,525.928,1937.516,526.074"/>
	<path fill="#1D6C94" d="M1942.594,509.734c-0.418,1.709-0.261,3.357,0.487,4.937c0.493,1.038,1.337,1.536,2.444,1.612
		c0.413,0.027,0.789-0.11,1.096-0.397c0.162-0.149,0.303-0.326,0.439-0.501c0.151-0.195,0.299-0.375,0.543-0.47
		c0.289-0.111,0.404-0.327,0.334-0.662c-0.108-0.521-0.228-1.043-0.388-1.548c-0.502-1.57-1.328-2.943-2.43-4.148
		c-0.255-0.278-0.493-0.572-0.843-0.741c-0.42-0.2-0.786-0.115-1.074,0.258c-0.252,0.326-0.356,0.722-0.479,1.104
		C1942.668,509.358,1942.637,509.549,1942.594,509.734"/>
	<path fill="#1D6C94" d="M156.179,687.62c0.356-0.013,0.712-0.016,1.066-0.039c0.832-0.054,1.669-0.071,2.493-0.187
		c1.04-0.144,1.921-0.686,2.775-1.273c0.966-0.665,1.742-1.504,2.409-2.459c0.021-0.029,0.041-0.059,0.053-0.093
		c0.631-1.573,1.287-3.139,1.882-4.725c0.509-1.354,0.807-2.769,1.018-4.2c0.208-1.396,0.347-2.796,0.382-4.206
		c0.061-2.343-0.581-4.485-1.885-6.429c-0.926-1.378-2.066-2.574-3.296-3.68c-1.85-1.669-3.838-3.15-6.016-4.367
		c-2.002-1.116-4.169-1.593-6.452-1.626c-1.94-0.027-3.783,0.403-5.585,1.079c-1.039,0.392-2.089,0.762-3.069,1.293
		c-1.498,0.812-2.748,1.929-3.85,3.213c-0.516,0.6-1.005,1.225-1.483,1.856c-1.033,1.36-1.559,2.929-1.821,4.598
		c-0.04,0.249-0.082,0.5-0.122,0.749c-0.022,0.361-0.046,0.723-0.07,1.085c0.007,0.035,0.017,0.071,0.024,0.104
		c0.074,0.467,0.114,0.937,0.231,1.39c0.234,0.924,0.679,1.767,1.073,2.628c0.499,1.101,1.258,1.973,2.237,2.658
		c1.788,1.245,3.747,2.1,5.906,2.446c0.447,0.069,0.902,0.075,1.353,0.084c0.232,0.003,0.468-0.056,0.702-0.072
		c0.378-0.026,0.547,0.094,0.656,0.455c0.054,0.187,0.093,0.374,0.129,0.564c0.229,1.241,0.48,2.478,0.963,3.65
		c1.132,2.747,3.168,4.456,6.022,5.215c0.319,0.085,0.647,0.137,0.971,0.203C155.31,687.563,155.744,687.593,156.179,687.62"/>
	<path fill="#1D6C94" d="M181.696,663.434c-0.072-0.173-0.133-0.354-0.223-0.52c-0.199-0.367-0.563-0.524-0.938-0.654
		c-0.477-0.168-0.976-0.235-1.477-0.233c-0.438,0.003-0.86,0.104-1.264,0.266c-0.876,0.347-1.699,0.797-2.487,1.304
		c-0.622,0.398-1.216,0.844-1.821,1.271c-0.362,0.255-0.732,0.505-1.084,0.774c-0.491,0.373-0.769,0.894-0.961,1.46
		c-0.131,0.385-0.311,0.761-0.327,1.179c-0.013,0.319,0.225,0.661,0.532,0.771c0.425,0.151,0.864,0.241,1.315,0.244
		c0.347,0.003,0.695-0.05,1.017-0.195c0.959-0.43,1.915-0.871,2.875-1.3c0.942-0.42,1.862-0.876,2.745-1.403
		c0.524-0.313,0.921-0.756,1.287-1.23c0.214-0.282,0.427-0.566,0.635-0.854c0.056-0.078,0.091-0.174,0.137-0.259
		C181.669,663.847,181.682,663.64,181.696,663.434"/>
	<path fill="#1D6C94" d="M147.539,641.943c-0.404,0.056-0.803,0.146-1.143,0.389c-0.188,0.137-0.38,0.302-0.498,0.498
		c-0.377,0.643-0.696,1.315-0.871,2.055c-0.104,0.453-0.094,0.904-0.042,1.36c0.116,1.009,0.218,2.018,0.343,3.023
		c0.033,0.292,0.11,0.579,0.199,0.856c0.139,0.433,0.436,0.714,0.866,0.79c0.37,0.065,0.748,0.113,1.121,0.108
		c0.585-0.013,1.062-0.306,1.44-0.768c0.464-0.562,0.708-1.238,0.902-1.936c0.498-1.801,0.381-3.577-0.164-5.337
		c-0.068-0.228-0.225-0.396-0.418-0.493c-0.34-0.176-0.697-0.314-1.045-0.466c-0.042-0.02-0.083-0.03-0.125-0.043
		C147.914,641.967,147.726,641.955,147.539,641.943"/>
	<path fill="#1D6C94" d="M154.643,650.03c-0.037,0.809,0.096,1.558,0.574,2.213c0.7,0.957,1.947,1.259,2.987,0.716
		c0.333-0.177,0.586-0.442,0.729-0.804c0.442-1.119,0.849-2.249,1.079-3.434c0.179-0.919,0.25-1.843,0.135-2.773
		c-0.077-0.606-0.385-1.027-0.928-1.265c-0.62-0.272-1.25-0.395-1.906-0.123c-0.302,0.124-0.566,0.31-0.742,0.596
		c-0.689,1.122-1.318,2.276-1.665,3.571C154.791,649.152,154.729,649.596,154.643,650.03"/>
	<path fill="#1D6C94" d="M172.497,652.533c-1.845-0.144-3.533,0.299-5.05,1.347c-0.994,0.688-1.37,1.649-1.26,2.815
		c0.041,0.434,0.25,0.8,0.601,1.071c0.183,0.143,0.391,0.26,0.596,0.371c0.229,0.125,0.44,0.25,0.578,0.486
		c0.167,0.283,0.411,0.363,0.746,0.234c0.524-0.201,1.047-0.415,1.545-0.669c1.546-0.784,2.835-1.88,3.9-3.23
		c0.247-0.312,0.512-0.608,0.628-1.002c0.137-0.471-0.014-0.836-0.45-1.073c-0.384-0.206-0.81-0.246-1.231-0.308
		C172.899,652.547,172.7,652.545,172.497,652.533"/>
	<path fill="#1D6C94" d="M231.071,652.673c0.355-0.011,0.711-0.018,1.067-0.039c0.831-0.053,1.668-0.07,2.492-0.186
		c1.041-0.145,1.92-0.686,2.774-1.273c0.967-0.666,1.743-1.507,2.41-2.459c0.02-0.029,0.041-0.061,0.055-0.093
		c0.629-1.573,1.285-3.139,1.882-4.725c0.509-1.355,0.804-2.77,1.016-4.2c0.207-1.396,0.347-2.797,0.384-4.206
		c0.059-2.345-0.582-4.487-1.886-6.43c-0.929-1.378-2.068-2.572-3.295-3.679c-1.851-1.669-3.84-3.151-6.017-4.368
		c-2.004-1.116-4.17-1.593-6.454-1.626c-1.94-0.026-3.782,0.403-5.585,1.08c-1.041,0.393-2.088,0.762-3.067,1.293
		c-1.499,0.813-2.749,1.927-3.852,3.212c-0.517,0.602-1.004,1.224-1.481,1.854c-1.032,1.361-1.56,2.932-1.824,4.601
		c-0.04,0.249-0.078,0.499-0.119,0.748c-0.023,0.362-0.049,0.725-0.073,1.085c0.01,0.035,0.02,0.07,0.025,0.104
		c0.076,0.465,0.117,0.936,0.232,1.39c0.233,0.925,0.679,1.765,1.071,2.628c0.5,1.099,1.26,1.973,2.24,2.657
		c1.788,1.246,3.746,2.1,5.907,2.445c0.443,0.071,0.899,0.075,1.351,0.085c0.232,0.005,0.468-0.056,0.704-0.073
		c0.375-0.024,0.546,0.094,0.653,0.457c0.054,0.184,0.094,0.373,0.128,0.563c0.229,1.242,0.482,2.478,0.964,3.65
		c1.131,2.747,3.168,4.456,6.022,5.212c0.318,0.087,0.647,0.139,0.972,0.207C230.203,652.616,230.635,652.646,231.071,652.673"/>
	<path fill="#1D6C94" d="M256.587,628.487c-0.072-0.174-0.131-0.355-0.222-0.519c-0.201-0.369-0.565-0.526-0.94-0.656
		c-0.477-0.168-0.973-0.237-1.477-0.234c-0.436,0.002-0.858,0.106-1.261,0.267c-0.875,0.347-1.699,0.797-2.489,1.303
		c-0.621,0.4-1.216,0.843-1.822,1.272c-0.362,0.255-0.73,0.504-1.083,0.772c-0.491,0.376-0.77,0.895-0.962,1.461
		c-0.131,0.386-0.31,0.761-0.326,1.18c-0.013,0.319,0.224,0.661,0.531,0.769c0.425,0.153,0.864,0.244,1.314,0.247
		c0.348,0.001,0.695-0.053,1.016-0.196c0.959-0.43,1.915-0.871,2.877-1.299c0.94-0.42,1.86-0.877,2.743-1.403
		c0.524-0.313,0.922-0.756,1.287-1.232c0.216-0.281,0.427-0.565,0.635-0.854c0.057-0.078,0.093-0.173,0.139-0.259
		C256.561,628.898,256.575,628.693,256.587,628.487"/>
	<path fill="#1D6C94" d="M222.429,606.997c-0.404,0.056-0.803,0.147-1.142,0.39c-0.187,0.134-0.38,0.299-0.497,0.497
		c-0.378,0.642-0.697,1.314-0.871,2.055c-0.107,0.453-0.097,0.904-0.043,1.36c0.117,1.007,0.216,2.019,0.341,3.023
		c0.037,0.29,0.112,0.578,0.199,0.856c0.14,0.432,0.435,0.713,0.868,0.79c0.37,0.064,0.748,0.112,1.119,0.107
		c0.587-0.012,1.061-0.306,1.441-0.767c0.463-0.563,0.709-1.238,0.901-1.937c0.498-1.801,0.383-3.576-0.161-5.336
		c-0.069-0.229-0.227-0.396-0.421-0.496c-0.339-0.174-0.697-0.313-1.044-0.463c-0.042-0.019-0.084-0.03-0.125-0.045
		C222.806,607.021,222.618,607.009,222.429,606.997"/>
	<path fill="#1D6C94" d="M229.535,615.083c-0.037,0.808,0.094,1.558,0.574,2.213c0.699,0.957,1.948,1.258,2.987,0.716
		c0.332-0.177,0.587-0.442,0.729-0.804c0.44-1.119,0.846-2.248,1.077-3.436c0.177-0.917,0.251-1.841,0.135-2.771
		c-0.076-0.607-0.384-1.027-0.929-1.266c-0.621-0.271-1.25-0.392-1.904-0.122c-0.304,0.124-0.568,0.309-0.743,0.595
		c-0.689,1.125-1.318,2.278-1.666,3.573C229.683,614.206,229.62,614.648,229.535,615.083"/>
	<path fill="#1D6C94" d="M247.39,617.587c-1.846-0.145-3.536,0.299-5.05,1.347c-0.995,0.687-1.373,1.65-1.261,2.812
		c0.042,0.437,0.249,0.803,0.6,1.073c0.183,0.142,0.391,0.258,0.595,0.371c0.229,0.124,0.442,0.249,0.58,0.487
		c0.165,0.282,0.411,0.364,0.746,0.234c0.524-0.202,1.045-0.415,1.544-0.669c1.547-0.786,2.833-1.881,3.9-3.231
		c0.246-0.311,0.513-0.608,0.628-1.001c0.135-0.473-0.013-0.838-0.45-1.073c-0.382-0.207-0.812-0.248-1.231-0.31
		C247.793,617.599,247.591,617.599,247.39,617.587"/>
	<path fill="#1D6C94" d="M312.3,669.125c0.472,0.009,0.943,0.032,1.414,0.031c1.104-0.003,2.213,0.042,3.312-0.042
		c1.391-0.107,2.597-0.754,3.775-1.463c1.333-0.801,2.426-1.852,3.387-3.057c0.03-0.038,0.058-0.077,0.078-0.121
		c0.962-2.031,1.955-4.049,2.873-6.1c0.785-1.749,1.288-3.599,1.686-5.477c0.386-1.827,0.686-3.671,0.848-5.533
		c0.267-3.096-0.407-5.982-1.976-8.66c-1.115-1.898-2.527-3.571-4.063-5.138c-2.312-2.356-4.823-4.478-7.609-6.261
		c-2.561-1.64-5.387-2.447-8.405-2.677c-2.566-0.193-5.04,0.229-7.48,0.978c-1.407,0.434-2.824,0.84-4.165,1.463
		c-2.048,0.954-3.792,2.328-5.355,3.939c-0.729,0.753-1.426,1.539-2.11,2.334c-1.478,1.721-2.301,3.752-2.786,5.938
		c-0.07,0.328-0.146,0.653-0.219,0.981c-0.06,0.476-0.121,0.955-0.181,1.433c0.006,0.045,0.019,0.092,0.023,0.139
		c0.062,0.618,0.078,1.247,0.193,1.855c0.234,1.241,0.756,2.39,1.207,3.565c0.573,1.494,1.506,2.711,2.748,3.695
		c2.266,1.797,4.788,3.083,7.618,3.716c0.583,0.129,1.186,0.172,1.783,0.221c0.307,0.024,0.623-0.036,0.934-0.038
		c0.501-0.004,0.715,0.168,0.828,0.654c0.058,0.249,0.096,0.504,0.127,0.759c0.203,1.66,0.436,3.317,0.979,4.907
		c1.277,3.727,3.832,6.153,7.548,7.387c0.416,0.138,0.844,0.233,1.269,0.35C311.154,668.977,311.728,669.05,312.3,669.125"/>
	<path fill="#1D6C94" d="M348.02,639.183c-0.083-0.236-0.146-0.479-0.251-0.705c-0.234-0.503-0.705-0.739-1.189-0.945
		c-0.619-0.258-1.27-0.389-1.937-0.425c-0.579-0.034-1.144,0.068-1.692,0.249c-1.187,0.387-2.312,0.915-3.396,1.521
		c-0.856,0.48-1.679,1.021-2.513,1.535c-0.501,0.308-1.008,0.61-1.5,0.938c-0.678,0.457-1.087,1.121-1.388,1.854
		c-0.205,0.501-0.474,0.98-0.527,1.536c-0.043,0.421,0.242,0.891,0.639,1.061c0.55,0.235,1.123,0.392,1.72,0.431
		c0.462,0.03,0.924-0.012,1.359-0.176c1.308-0.491,2.606-0.996,3.913-1.488c1.277-0.479,2.533-1.007,3.743-1.633
		c0.719-0.373,1.282-0.927,1.801-1.526c0.308-0.355,0.612-0.716,0.91-1.078c0.082-0.102,0.137-0.223,0.206-0.333
		C347.951,639.723,347.985,639.453,348.02,639.183"/>
	<path fill="#1D6C94" d="M304.559,607.983c-0.54,0.039-1.073,0.128-1.542,0.422c-0.26,0.163-0.527,0.364-0.699,0.618
		c-0.553,0.817-1.028,1.685-1.318,2.648c-0.178,0.59-0.198,1.188-0.166,1.798c0.072,1.342,0.125,2.687,0.208,4.031
		c0.023,0.383,0.098,0.771,0.195,1.146c0.148,0.581,0.519,0.978,1.083,1.112c0.483,0.118,0.98,0.212,1.473,0.232
		c0.777,0.032,1.428-0.316,1.966-0.895c0.66-0.709,1.04-1.582,1.354-2.491c0.802-2.34,0.793-4.701,0.216-7.076
		c-0.075-0.307-0.269-0.541-0.517-0.687c-0.434-0.26-0.896-0.47-1.346-0.7c-0.053-0.026-0.108-0.047-0.161-0.068
		C305.055,608.044,304.807,608.014,304.559,607.983"/>
	<path fill="#1D6C94" d="M313.308,619.257c-0.114,1.067-0.001,2.067,0.579,2.975c0.848,1.324,2.478,1.825,3.895,1.188
		c0.455-0.204,0.813-0.538,1.03-1.004c0.675-1.442,1.304-2.905,1.705-4.457c0.31-1.199,0.481-2.416,0.4-3.658
		c-0.049-0.809-0.424-1.391-1.122-1.749c-0.8-0.409-1.624-0.621-2.511-0.315c-0.412,0.14-0.777,0.364-1.032,0.728
		c-1.003,1.429-1.929,2.909-2.491,4.591C313.574,618.109,313.455,618.688,313.308,619.257"/>
	<path fill="#1D6C94" d="M336.731,624.013c-2.435-0.338-4.704,0.11-6.792,1.374c-1.37,0.828-1.947,2.072-1.897,3.621
		c0.021,0.581,0.268,1.082,0.708,1.47c0.233,0.203,0.496,0.375,0.758,0.539c0.292,0.182,0.563,0.364,0.729,0.689
		c0.194,0.386,0.511,0.517,0.967,0.373c0.709-0.226,1.417-0.465,2.098-0.761c2.11-0.915,3.9-2.259,5.42-3.959
		c0.354-0.394,0.729-0.766,0.912-1.276c0.221-0.612,0.051-1.109-0.507-1.457c-0.489-0.304-1.053-0.394-1.602-0.508
		C337.264,624.064,336.997,624.046,336.731,624.013"/>
	<path fill="#1D6C94" d="M108.036,213.432c-0.08-0.327-0.154-0.658-0.244-0.982c-0.209-0.763-0.388-1.537-0.654-2.281
		c-0.333-0.938-1.006-1.65-1.718-2.331c-0.805-0.769-1.736-1.326-2.75-1.763c-0.031-0.016-0.064-0.027-0.097-0.033
		c-1.583-0.281-3.165-0.588-4.753-0.836c-1.358-0.211-2.729-0.211-4.099-0.133c-1.336,0.078-2.665,0.217-3.981,0.457
		c-2.189,0.396-4.057,1.406-5.609,2.993c-1.101,1.128-1.991,2.419-2.784,3.772c-1.191,2.043-2.184,4.177-2.893,6.436
		c-0.651,2.077-0.675,4.181-0.266,6.308c0.349,1.81,1.105,3.438,2.083,4.981c0.563,0.891,1.111,1.794,1.794,2.603
		c1.045,1.234,2.322,2.18,3.729,2.956c0.658,0.362,1.332,0.696,2.01,1.018c1.465,0.697,3.023,0.883,4.626,0.806
		c0.24-0.011,0.479-0.022,0.718-0.033c0.34-0.049,0.682-0.096,1.023-0.143c0.031-0.015,0.06-0.03,0.092-0.043
		c0.416-0.159,0.846-0.289,1.245-0.484c0.813-0.394,1.509-0.973,2.235-1.502c0.924-0.678,1.59-1.552,2.035-2.595
		c0.815-1.903,1.227-3.887,1.132-5.96c-0.021-0.428-0.104-0.852-0.183-1.273c-0.04-0.217-0.142-0.424-0.201-0.638
		c-0.098-0.345-0.02-0.526,0.295-0.695c0.162-0.088,0.33-0.16,0.5-0.231c1.108-0.451,2.209-0.924,3.207-1.6
		c2.332-1.582,3.527-3.804,3.68-6.603c0.017-0.312,0.001-0.627,0.001-0.941C108.151,214.251,108.093,213.843,108.036,213.432"/>
	<path fill="#1D6C94" d="M80.634,194.397c-0.147,0.102-0.304,0.189-0.439,0.306c-0.304,0.258-0.379,0.626-0.428,1
		c-0.064,0.476-0.031,0.951,0.068,1.418c0.086,0.404,0.264,0.778,0.491,1.122c0.492,0.747,1.068,1.424,1.691,2.058
		c0.492,0.502,1.019,0.968,1.532,1.448c0.308,0.287,0.612,0.581,0.93,0.856c0.443,0.386,0.977,0.543,1.541,0.611
		c0.385,0.047,0.768,0.143,1.16,0.075c0.3-0.05,0.57-0.335,0.613-0.642c0.059-0.425,0.057-0.85-0.027-1.269
		c-0.065-0.323-0.184-0.636-0.378-0.906c-0.585-0.81-1.178-1.611-1.763-2.421c-0.57-0.793-1.173-1.561-1.833-2.279
		c-0.394-0.428-0.881-0.711-1.394-0.956c-0.303-0.146-0.608-0.289-0.916-0.426c-0.085-0.037-0.179-0.053-0.27-0.078
		C81.022,194.344,80.827,194.369,80.634,194.397"/>
	<path fill="#1D6C94" d="M67.266,230.285c0.13,0.364,0.29,0.718,0.583,0.985c0.162,0.149,0.352,0.295,0.557,0.367
		c0.67,0.228,1.357,0.393,2.079,0.411c0.439,0.011,0.857-0.085,1.271-0.224c0.915-0.302,1.833-0.592,2.745-0.9
		c0.262-0.09,0.516-0.215,0.755-0.352c0.375-0.212,0.58-0.543,0.567-0.958c-0.01-0.355-0.039-0.716-0.117-1.061
		c-0.125-0.542-0.487-0.927-0.989-1.189c-0.613-0.321-1.286-0.42-1.974-0.465c-1.768-0.115-3.398,0.335-4.927,1.182
		c-0.199,0.11-0.324,0.287-0.377,0.486c-0.098,0.348-0.156,0.707-0.231,1.062c-0.008,0.041-0.01,0.083-0.015,0.123
		C67.216,229.931,67.241,230.108,67.266,230.285"/>
	<path fill="#1D6C94" d="M73.407,222.122c0.757-0.122,1.427-0.389,1.944-0.962c0.753-0.834,0.794-2.053,0.088-2.912
		c-0.229-0.276-0.525-0.46-0.889-0.522c-1.123-0.193-2.25-0.354-3.399-0.338c-0.887,0.012-1.758,0.122-2.603,0.41
		c-0.549,0.187-0.878,0.555-0.996,1.105c-0.132,0.63-0.123,1.238,0.256,1.794c0.173,0.258,0.396,0.469,0.696,0.576
		c1.176,0.422,2.372,0.784,3.64,0.856C72.564,222.153,72.987,222.126,73.407,222.122"/>
	<path fill="#1D6C94" d="M72.283,205.049c0.223,1.744,0.96,3.226,2.227,4.433c0.83,0.791,1.797,0.956,2.857,0.627
		c0.398-0.123,0.697-0.386,0.88-0.765c0.098-0.199,0.167-0.413,0.231-0.626c0.072-0.235,0.145-0.457,0.339-0.632
		c0.231-0.208,0.259-0.45,0.074-0.739c-0.29-0.446-0.587-0.89-0.918-1.305c-1.029-1.284-2.294-2.27-3.755-2.999
		c-0.339-0.168-0.667-0.359-1.052-0.389c-0.466-0.037-0.775,0.172-0.911,0.624c-0.118,0.396-0.075,0.801-0.05,1.203
		C72.217,204.671,72.256,204.86,72.283,205.049"/>
	<path fill="#1D6C94" d="M160.861,132.033c-0.147-0.303-0.288-0.61-0.444-0.91c-0.363-0.703-0.698-1.423-1.112-2.095
		c-0.522-0.85-1.328-1.405-2.165-1.924c-0.948-0.584-1.976-0.937-3.059-1.153c-0.033-0.007-0.067-0.012-0.101-0.011
		c-1.608,0.055-3.217,0.082-4.824,0.171c-1.371,0.074-2.712,0.359-4.036,0.722c-1.292,0.354-2.562,0.766-3.799,1.273
		c-2.06,0.845-3.675,2.221-4.866,4.095c-0.842,1.333-1.445,2.779-1.938,4.27c-0.74,2.244-1.269,4.538-1.492,6.896
		c-0.204,2.167,0.209,4.232,1.053,6.227c0.716,1.696,1.795,3.132,3.072,4.439c0.738,0.755,1.459,1.521,2.297,2.171
		c1.278,0.991,2.723,1.65,4.26,2.116c0.718,0.218,1.447,0.405,2.179,0.579c1.577,0.377,3.141,0.234,4.691-0.174
		c0.231-0.062,0.463-0.12,0.695-0.182c0.324-0.118,0.647-0.235,0.97-0.354c0.028-0.019,0.054-0.042,0.082-0.06
		c0.375-0.244,0.768-0.46,1.118-0.731c0.713-0.558,1.274-1.267,1.872-1.937c0.764-0.854,1.234-1.848,1.454-2.961
		c0.399-2.029,0.393-4.056-0.132-6.065c-0.108-0.413-0.28-0.811-0.444-1.207c-0.085-0.203-0.227-0.384-0.331-0.581
		c-0.166-0.317-0.128-0.513,0.146-0.743c0.139-0.118,0.289-0.225,0.44-0.329c0.99-0.672,1.968-1.363,2.802-2.231
		c1.955-2.032,2.66-4.454,2.228-7.224c-0.047-0.309-0.127-0.613-0.194-0.92C161.144,132.81,161.002,132.422,160.861,132.033"/>
	<path fill="#1D6C94" d="M130.101,119.111c-0.123,0.13-0.258,0.251-0.367,0.391c-0.244,0.315-0.238,0.691-0.21,1.067
		c0.036,0.479,0.168,0.937,0.362,1.373c0.169,0.379,0.421,0.706,0.714,0.994c0.636,0.628,1.341,1.172,2.081,1.662
		c0.588,0.389,1.198,0.735,1.802,1.097c0.36,0.219,0.718,0.441,1.088,0.646c0.512,0.284,1.069,0.327,1.635,0.277
		c0.385-0.032,0.78-0.021,1.15-0.167c0.282-0.11,0.488-0.445,0.466-0.756c-0.032-0.427-0.12-0.842-0.292-1.234
		c-0.131-0.305-0.309-0.585-0.557-0.808c-0.74-0.67-1.489-1.331-2.228-2.002c-0.724-0.657-1.472-1.282-2.268-1.848
		c-0.474-0.337-1.009-0.513-1.562-0.647c-0.329-0.079-0.654-0.153-0.985-0.225c-0.09-0.021-0.185-0.015-0.277-0.021
		C130.468,118.979,130.285,119.045,130.101,119.111"/>
	<path fill="#1D6C94" d="M124.486,156.995c0.203,0.33,0.434,0.642,0.775,0.845c0.189,0.111,0.406,0.214,0.623,0.241
		c0.702,0.082,1.41,0.103,2.118-0.03c0.432-0.079,0.821-0.262,1.199-0.482c0.829-0.484,1.669-0.96,2.496-1.452
		c0.237-0.143,0.461-0.317,0.666-0.501c0.322-0.284,0.454-0.65,0.354-1.055c-0.085-0.346-0.187-0.692-0.334-1.014
		c-0.234-0.504-0.67-0.806-1.216-0.957c-0.666-0.188-1.345-0.144-2.025-0.045c-1.755,0.256-3.255,1.035-4.576,2.182
		c-0.172,0.147-0.257,0.348-0.268,0.553c-0.022,0.36-0.007,0.724-0.005,1.087c0,0.041,0.006,0.082,0.01,0.125
		C124.364,156.659,124.424,156.827,124.486,156.995"/>
	<path fill="#1D6C94" d="M128.794,147.733c0.716-0.277,1.317-0.678,1.704-1.344c0.563-0.974,0.349-2.174-0.521-2.868
		c-0.28-0.224-0.608-0.341-0.976-0.327c-1.139,0.045-2.276,0.122-3.397,0.376c-0.865,0.196-1.694,0.486-2.459,0.943
		c-0.498,0.298-0.744,0.727-0.744,1.289c0.001,0.644,0.136,1.234,0.621,1.702c0.225,0.214,0.488,0.374,0.801,0.418
		c1.239,0.17,2.484,0.273,3.739,0.08C127.979,147.939,128.385,147.825,128.794,147.733"/>
	<path fill="#1D6C94" d="M124.147,131.268c0.58,1.659,1.61,2.955,3.099,3.872c0.978,0.601,1.957,0.56,2.927,0.02
		c0.363-0.201,0.601-0.523,0.703-0.932c0.051-0.214,0.076-0.438,0.094-0.659c0.022-0.245,0.047-0.477,0.202-0.689
		c0.181-0.252,0.159-0.494-0.082-0.738c-0.375-0.377-0.76-0.748-1.17-1.085c-1.273-1.043-2.715-1.743-4.296-2.153
		c-0.366-0.095-0.726-0.213-1.111-0.162c-0.462,0.061-0.722,0.33-0.759,0.801c-0.034,0.411,0.093,0.799,0.201,1.186
		C124.003,130.912,124.081,131.088,124.147,131.268"/>
	<path fill="#1D6C94" d="M1947.855,652.166c0.076-0.329,0.161-0.656,0.229-0.987c0.157-0.773,0.351-1.545,0.451-2.327
		c0.13-0.988-0.147-1.931-0.474-2.858c-0.367-1.051-0.944-1.972-1.647-2.82c-0.022-0.026-0.046-0.053-0.073-0.071
		c-1.284-0.971-2.552-1.961-3.855-2.903c-1.113-0.806-2.334-1.429-3.592-1.98c-1.226-0.537-2.473-1.016-3.754-1.4
		c-2.132-0.641-4.254-0.589-6.357,0.122c-1.494,0.503-2.872,1.25-4.192,2.097c-1.989,1.278-3.845,2.728-5.501,4.421
		c-1.523,1.554-2.498,3.418-3.099,5.501c-0.511,1.77-0.576,3.563-0.407,5.383c0.099,1.05,0.176,2.102,0.418,3.132
		c0.371,1.574,1.08,2.998,1.98,4.327c0.421,0.621,0.87,1.224,1.328,1.819c0.989,1.287,2.293,2.16,3.756,2.818
		c0.219,0.099,0.437,0.197,0.654,0.296c0.326,0.112,0.652,0.225,0.979,0.336c0.031,0.002,0.066,0,0.1,0.004
		c0.443,0.048,0.885,0.127,1.329,0.135c0.903,0.019,1.786-0.18,2.675-0.324c1.129-0.184,2.119-0.659,2.99-1.386
		c1.589-1.327,2.857-2.905,3.715-4.798c0.178-0.389,0.293-0.806,0.416-1.217c0.062-0.213,0.064-0.441,0.107-0.661
		c0.072-0.352,0.224-0.479,0.58-0.486c0.183-0.003,0.367,0.008,0.55,0.022c1.194,0.102,2.39,0.178,3.584,0.03
		c2.797-0.352,4.869-1.788,6.276-4.212c0.157-0.271,0.287-0.559,0.43-0.838C1947.586,652.947,1947.721,652.556,1947.855,652.166"/>
	<path fill="#1D6C94" d="M1932.082,622.766c-0.178,0.022-0.357,0.031-0.531,0.073c-0.388,0.091-0.621,0.386-0.834,0.696
		c-0.274,0.396-0.461,0.833-0.582,1.295c-0.108,0.4-0.119,0.812-0.072,1.222c0.099,0.888,0.304,1.755,0.57,2.604
		c0.212,0.67,0.469,1.324,0.709,1.983c0.143,0.396,0.281,0.796,0.439,1.186c0.22,0.545,0.624,0.928,1.097,1.245
		c0.32,0.217,0.618,0.475,0.998,0.594c0.29,0.093,0.659-0.039,0.837-0.294c0.246-0.352,0.438-0.729,0.554-1.142
		c0.089-0.319,0.126-0.649,0.075-0.979c-0.154-0.986-0.32-1.971-0.473-2.957c-0.148-0.967-0.338-1.923-0.598-2.863
		c-0.157-0.56-0.464-1.033-0.809-1.484c-0.203-0.269-0.412-0.532-0.624-0.796c-0.058-0.071-0.135-0.127-0.202-0.192
		C1932.45,622.893,1932.267,622.828,1932.082,622.766"/>
	<path fill="#1D6C94" d="M1903.878,648.673c-0.052,0.384-0.067,0.771,0.071,1.144c0.077,0.205,0.179,0.423,0.33,0.58
		c0.494,0.505,1.031,0.965,1.664,1.31c0.388,0.211,0.805,0.312,1.236,0.379c0.95,0.145,1.9,0.304,2.854,0.442
		c0.274,0.039,0.557,0.044,0.833,0.029c0.43-0.018,0.762-0.221,0.938-0.597c0.152-0.321,0.291-0.655,0.378-0.998
		c0.136-0.539-0.013-1.047-0.342-1.509c-0.398-0.564-0.954-0.959-1.546-1.309c-1.524-0.906-3.18-1.244-4.929-1.185
		c-0.226,0.006-0.417,0.108-0.557,0.261c-0.244,0.268-0.461,0.559-0.687,0.841c-0.027,0.034-0.048,0.068-0.07,0.104
		C1903.994,648.334,1903.934,648.503,1903.878,648.673"/>
	<path fill="#1D6C94" d="M1913.055,644.187c0.731,0.236,1.449,0.303,2.169,0.028c1.052-0.402,1.64-1.471,1.399-2.556
		c-0.075-0.35-0.258-0.649-0.553-0.87c-0.912-0.682-1.845-1.336-2.874-1.844c-0.796-0.393-1.624-0.689-2.505-0.815
		c-0.575-0.082-1.037,0.095-1.391,0.533c-0.404,0.501-0.672,1.048-0.588,1.714c0.038,0.308,0.143,0.598,0.36,0.829
		c0.856,0.909,1.757,1.774,2.854,2.416C1912.29,643.833,1912.678,643.999,1913.055,644.187"/>
	<path fill="#1D6C94" d="M1919.805,628.465c-0.593,1.654-0.608,3.31-0.028,4.961c0.381,1.081,1.168,1.666,2.264,1.857
		c0.408,0.07,0.794-0.03,1.13-0.284c0.176-0.132,0.336-0.291,0.489-0.451c0.171-0.179,0.336-0.342,0.588-0.41
		c0.302-0.08,0.437-0.284,0.403-0.624c-0.056-0.529-0.119-1.061-0.227-1.581c-0.334-1.61-1.014-3.064-1.986-4.377
		c-0.223-0.303-0.429-0.621-0.76-0.825c-0.397-0.242-0.77-0.196-1.096,0.144c-0.285,0.299-0.428,0.68-0.589,1.05
		C1919.918,628.099,1919.866,628.284,1919.805,628.465"/>
	<path fill="#1D6C94" d="M78.591,16.371c-0.124-0.594-0.234-1.193-0.377-1.785c-0.329-1.387-0.601-2.792-1.032-4.148
		c-0.544-1.712-1.712-3.036-2.949-4.306c-1.402-1.436-3.045-2.5-4.843-3.349c-0.057-0.026-0.113-0.051-0.173-0.064
		c-2.834-0.605-5.66-1.257-8.506-1.803c-2.43-0.467-4.901-0.554-7.374-0.498c-2.41,0.054-4.811,0.222-7.198,0.57
		c-3.969,0.579-7.396,2.279-10.29,5.041c-2.056,1.96-3.738,4.228-5.251,6.62c-2.275,3.601-4.199,7.382-5.614,11.406
		c-1.304,3.697-1.481,7.486-0.875,11.344c0.514,3.278,1.773,6.259,3.437,9.1c0.96,1.641,1.889,3.299,3.068,4.798
		c1.803,2.291,4.044,4.074,6.53,5.559c1.16,0.696,2.354,1.338,3.555,1.961c2.594,1.347,5.387,1.78,8.279,1.741
		c0.431-0.006,0.862-0.009,1.295-0.013c0.617-0.067,1.233-0.131,1.852-0.195c0.055-0.023,0.11-0.051,0.168-0.07
		c0.76-0.262,1.544-0.47,2.272-0.793c1.491-0.661,2.779-1.657,4.121-2.568c1.705-1.16,2.96-2.692,3.829-4.542
		c1.584-3.375,2.455-6.921,2.414-10.663c-0.01-0.769-0.134-1.539-0.249-2.302c-0.061-0.395-0.229-0.771-0.323-1.164
		c-0.154-0.626-0.003-0.948,0.576-1.234c0.296-0.145,0.603-0.267,0.912-0.381c2.027-0.746,4.037-1.527,5.875-2.681
		c4.301-2.702,6.593-6.627,7.044-11.659c0.052-0.562,0.044-1.131,0.062-1.696C78.748,17.853,78.67,17.113,78.591,16.371"/>
	<path fill="#1D6C94" d="M30.443-19.631c-0.271,0.173-0.559,0.325-0.812,0.523c-0.563,0.445-0.721,1.104-0.833,1.773
		c-0.145,0.854-0.116,1.71,0.033,2.559c0.132,0.734,0.427,1.417,0.814,2.051c0.839,1.374,1.835,2.633,2.915,3.813
		c0.856,0.934,1.776,1.807,2.669,2.703c0.538,0.539,1.065,1.085,1.622,1.603c0.772,0.72,1.727,1.038,2.737,1.197
		c0.689,0.109,1.373,0.304,2.083,0.21c0.543-0.072,1.047-0.567,1.145-1.119c0.132-0.761,0.158-1.525,0.032-2.287
		c-0.097-0.589-0.289-1.156-0.624-1.655c-1.003-1.495-2.022-2.977-3.023-4.472c-0.979-1.463-2.015-2.883-3.158-4.218
		c-0.681-0.796-1.541-1.336-2.45-1.812c-0.536-0.281-1.078-0.556-1.622-0.823c-0.15-0.073-0.319-0.106-0.479-0.158
		C31.142-19.705,30.793-19.668,30.443-19.631"/>
	<path fill="#1D6C94" d="M4.112,44.158c0.211,0.665,0.479,1.31,0.988,1.812c0.281,0.277,0.614,0.554,0.98,0.694
		c1.192,0.452,2.42,0.793,3.715,0.874c0.793,0.049,1.553-0.103,2.307-0.323c1.664-0.486,3.337-0.95,4.998-1.451
		c0.479-0.143,0.943-0.353,1.382-0.583c0.689-0.361,1.078-0.943,1.081-1.691c0.002-0.64-0.023-1.292-0.144-1.917
		c-0.189-0.984-0.819-1.7-1.707-2.206c-1.083-0.618-2.29-0.837-3.524-0.96c-3.178-0.32-6.14,0.39-8.949,1.818
		c-0.365,0.185-0.601,0.497-0.711,0.851c-0.196,0.622-0.326,1.264-0.482,1.898c-0.018,0.073-0.024,0.147-0.036,0.222
		C4.043,43.517,4.077,43.837,4.112,44.158"/>
	<path fill="#1D6C94" d="M15.684,29.843c1.373-0.173,2.598-0.611,3.563-1.608c1.41-1.455,1.558-3.648,0.342-5.239
		c-0.393-0.512-0.917-0.862-1.565-1c-2.012-0.418-4.035-0.778-6.103-0.823c-1.596-0.035-3.172,0.11-4.709,0.576
		c-1.001,0.304-1.619,0.946-1.863,1.93c-0.281,1.125-0.3,2.221,0.344,3.248c0.297,0.472,0.688,0.865,1.219,1.078
		c2.092,0.836,4.223,1.562,6.5,1.772C14.163,29.847,14.925,29.824,15.684,29.843"/>
	<path fill="#1D6C94" d="M14.732-0.973c0.292,3.153,1.528,5.87,3.732,8.122c1.447,1.477,3.177,1.832,5.109,1.31
		c0.723-0.196,1.278-0.653,1.632-1.323c0.187-0.352,0.326-0.732,0.454-1.111c0.144-0.421,0.29-0.814,0.652-1.118
		c0.426-0.359,0.495-0.796,0.18-1.326c-0.493-0.823-1.001-1.641-1.573-2.409c-1.772-2.379-3.991-4.23-6.575-5.637
		c-0.597-0.326-1.175-0.689-1.871-0.768c-0.834-0.095-1.407,0.262-1.678,1.066C14.557-3.459,14.612-2.727,14.63-2
		C14.638-1.658,14.697-1.316,14.732-0.973"/>
	<path fill="#1D6C94" d="M73.141,127.9c-0.136-0.309-0.264-0.621-0.41-0.927c-0.34-0.713-0.65-1.444-1.039-2.13
		c-0.494-0.867-1.279-1.453-2.098-1.998c-0.926-0.618-1.941-1.006-3.015-1.26c-0.034-0.008-0.067-0.015-0.103-0.015
		c-1.606-0.002-3.215-0.029-4.825,0.003c-1.373,0.025-2.723,0.265-4.06,0.578c-1.301,0.31-2.585,0.678-3.842,1.142
		c-2.086,0.771-3.75,2.09-5.003,3.924c-0.889,1.301-1.542,2.727-2.085,4.199c-0.821,2.217-1.429,4.491-1.733,6.837
		c-0.28,2.16,0.062,4.237,0.835,6.261c0.657,1.72,1.685,3.192,2.915,4.544c0.711,0.779,1.405,1.573,2.219,2.249
		c1.244,1.036,2.665,1.745,4.185,2.264c0.711,0.244,1.432,0.456,2.157,0.654c1.564,0.433,3.13,0.346,4.695-0.01
		c0.233-0.053,0.467-0.104,0.701-0.156c0.329-0.107,0.657-0.214,0.983-0.32c0.028-0.019,0.054-0.039,0.083-0.058
		c0.382-0.229,0.783-0.433,1.143-0.691c0.731-0.53,1.317-1.221,1.939-1.868c0.792-0.829,1.296-1.803,1.554-2.909
		c0.471-2.015,0.534-4.039,0.079-6.065c-0.092-0.417-0.249-0.82-0.399-1.223c-0.078-0.207-0.214-0.392-0.311-0.593
		c-0.155-0.322-0.111-0.517,0.169-0.737c0.145-0.112,0.296-0.215,0.453-0.312c1.014-0.638,2.015-1.294,2.878-2.133
		c2.024-1.963,2.814-4.357,2.48-7.141c-0.038-0.312-0.107-0.619-0.162-0.928C73.396,128.687,73.269,128.294,73.141,127.9"/>
	<path fill="#1D6C94" d="M42.85,113.913c-0.127,0.125-0.264,0.24-0.38,0.378c-0.252,0.307-0.264,0.683-0.248,1.059
		c0.022,0.479,0.135,0.941,0.314,1.384c0.156,0.384,0.395,0.721,0.679,1.021c0.615,0.649,1.3,1.218,2.022,1.733
		c0.571,0.408,1.171,0.776,1.76,1.16c0.353,0.229,0.704,0.465,1.064,0.682c0.504,0.303,1.059,0.364,1.625,0.335
		c0.387-0.021,0.78,0.005,1.157-0.127c0.285-0.102,0.5-0.429,0.49-0.739c-0.015-0.429-0.09-0.846-0.246-1.245
		c-0.121-0.309-0.29-0.594-0.529-0.826c-0.717-0.695-1.441-1.383-2.157-2.079c-0.7-0.681-1.425-1.333-2.2-1.924
		c-0.462-0.354-0.991-0.549-1.54-0.701c-0.323-0.093-0.649-0.179-0.976-0.261c-0.089-0.021-0.185-0.021-0.277-0.029
		C43.222,113.793,43.037,113.854,42.85,113.913"/>
	<path fill="#1D6C94" d="M35.918,151.577c0.191,0.337,0.411,0.656,0.744,0.87c0.185,0.118,0.398,0.229,0.613,0.264
		c0.698,0.107,1.405,0.152,2.118,0.046c0.436-0.066,0.83-0.236,1.214-0.441c0.847-0.457,1.703-0.902,2.545-1.364
		c0.244-0.135,0.471-0.302,0.684-0.478c0.331-0.274,0.476-0.635,0.392-1.042c-0.073-0.348-0.162-0.697-0.299-1.025
		c-0.217-0.512-0.642-0.827-1.182-0.999c-0.66-0.211-1.34-0.188-2.022-0.114c-1.763,0.193-3.29,0.921-4.65,2.02
		c-0.176,0.142-0.267,0.339-0.286,0.544c-0.035,0.359-0.032,0.724-0.042,1.086c-0.002,0.041,0.002,0.083,0.005,0.124
		C35.808,151.237,35.861,151.407,35.918,151.577"/>
	<path fill="#1D6C94" d="M40.547,142.472c0.726-0.253,1.339-0.632,1.748-1.284c0.598-0.952,0.426-2.159-0.42-2.884
		c-0.271-0.231-0.595-0.361-0.963-0.36c-1.14,0.004-2.279,0.043-3.408,0.257c-0.871,0.166-1.709,0.426-2.489,0.855
		c-0.508,0.28-0.77,0.701-0.791,1.263c-0.021,0.644,0.095,1.24,0.562,1.724c0.218,0.222,0.474,0.391,0.787,0.444
		c1.233,0.213,2.473,0.361,3.734,0.213C39.721,142.649,40.133,142.549,40.547,142.472"/>
	<path fill="#1D6C94" d="M36.475,125.854c0.523,1.679,1.507,3.011,2.964,3.978c0.955,0.636,1.935,0.628,2.923,0.122
		c0.371-0.188,0.619-0.502,0.734-0.906c0.062-0.211,0.092-0.435,0.118-0.655c0.029-0.245,0.064-0.476,0.226-0.683
		c0.19-0.244,0.176-0.489-0.057-0.739c-0.362-0.39-0.731-0.775-1.132-1.127c-1.237-1.086-2.653-1.836-4.219-2.302
		c-0.362-0.106-0.717-0.237-1.104-0.2c-0.465,0.045-0.734,0.306-0.788,0.774c-0.049,0.409,0.067,0.8,0.159,1.191
		C36.345,125.493,36.416,125.673,36.475,125.854"/>
	<path fill="#1D6C94" d="M168.316,43.504c0.04-0.442,0.09-0.886,0.116-1.33c0.064-1.042,0.173-2.083,0.16-3.125
		c-0.018-1.315-0.554-2.491-1.149-3.644c-0.677-1.304-1.601-2.399-2.68-3.376c-0.034-0.03-0.068-0.06-0.107-0.082
		c-1.857-1.027-3.696-2.085-5.574-3.073c-1.603-0.844-3.314-1.431-5.059-1.917c-1.699-0.475-3.417-0.869-5.163-1.133
		c-2.902-0.439-5.664,0.022-8.28,1.341c-1.855,0.936-3.518,2.166-5.085,3.52c-2.36,2.037-4.513,4.276-6.359,6.793
		c-1.7,2.312-2.631,4.929-3.028,7.759c-0.338,2.405-0.09,4.762,0.472,7.105c0.322,1.354,0.62,2.713,1.128,4.014
		c0.775,1.987,1.965,3.714,3.391,5.282c0.664,0.734,1.363,1.438,2.072,2.13c1.53,1.496,3.395,2.393,5.428,2.981
		c0.304,0.087,0.605,0.177,0.91,0.267c0.447,0.085,0.891,0.17,1.339,0.257c0.043-0.004,0.088-0.013,0.133-0.013
		c0.587-0.022,1.18-0.001,1.759-0.072c1.187-0.146,2.299-0.569,3.433-0.922c1.441-0.449,2.647-1.255,3.649-2.366
		c1.828-2.026,3.191-4.326,3.959-6.956c0.157-0.541,0.235-1.106,0.316-1.665c0.041-0.29,0.003-0.589,0.021-0.884
		c0.025-0.471,0.2-0.664,0.666-0.742c0.239-0.039,0.479-0.059,0.721-0.073c1.578-0.091,3.152-0.21,4.685-0.627
		c3.587-0.978,6.028-3.239,7.415-6.667c0.156-0.383,0.271-0.783,0.404-1.175C168.11,44.575,168.214,44.04,168.316,43.504"/>
	<path fill="#1D6C94" d="M142.254,8.042c-0.227,0.063-0.46,0.108-0.68,0.194c-0.489,0.192-0.74,0.62-0.96,1.065
		c-0.283,0.567-0.445,1.173-0.522,1.799c-0.062,0.542-0.001,1.083,0.135,1.609c0.294,1.141,0.724,2.234,1.229,3.292
		c0.4,0.836,0.859,1.643,1.295,2.461c0.262,0.491,0.515,0.987,0.795,1.467c0.388,0.668,0.988,1.095,1.662,1.421
		c0.459,0.223,0.897,0.505,1.414,0.59c0.396,0.065,0.855-0.174,1.041-0.54c0.254-0.504,0.435-1.035,0.509-1.595
		c0.057-0.433,0.043-0.871-0.085-1.292c-0.385-1.26-0.783-2.516-1.166-3.775c-0.374-1.233-0.798-2.448-1.314-3.626
		c-0.309-0.703-0.795-1.264-1.33-1.791c-0.315-0.312-0.637-0.619-0.961-0.921c-0.09-0.083-0.201-0.143-0.302-0.212
		C142.759,8.139,142.507,8.09,142.254,8.042"/>
	<path fill="#1D6C94" d="M110.236,47.117c0.007,0.511,0.057,1.02,0.307,1.479c0.138,0.254,0.312,0.519,0.539,0.695
		c0.738,0.57,1.526,1.071,2.416,1.403c0.545,0.203,1.109,0.258,1.685,0.264c1.269,0.013,2.539,0.045,3.81,0.047
		c0.365,0.002,0.735-0.046,1.092-0.114c0.56-0.106,0.956-0.431,1.117-0.955c0.137-0.448,0.259-0.91,0.308-1.373
		c0.076-0.729-0.213-1.366-0.727-1.908c-0.627-0.663-1.426-1.073-2.264-1.422c-2.159-0.9-4.384-1.033-6.654-0.63
		c-0.296,0.052-0.527,0.22-0.68,0.444c-0.27,0.394-0.496,0.816-0.741,1.227c-0.028,0.047-0.05,0.098-0.073,0.147
		C110.325,46.653,110.28,46.885,110.236,47.117"/>
	<path fill="#1D6C94" d="M121.388,39.553c0.999,0.171,1.95,0.125,2.838-0.368c1.297-0.719,1.868-2.224,1.354-3.597
		c-0.166-0.442-0.458-0.799-0.883-1.033c-1.32-0.721-2.66-1.403-4.1-1.875c-1.11-0.364-2.245-0.598-3.421-0.598
		c-0.767,0-1.335,0.317-1.716,0.955c-0.437,0.728-0.683,1.492-0.45,2.348c0.107,0.394,0.298,0.752,0.624,1.015
		c1.287,1.031,2.625,1.992,4.176,2.625C120.321,39.232,120.861,39.378,121.388,39.553"/>
	<path fill="#1D6C94" d="M127.279,17.767c-0.466,2.271-0.179,4.436,0.886,6.482c0.7,1.343,1.834,1.959,3.3,2.005
		c0.548,0.017,1.034-0.186,1.425-0.579c0.206-0.207,0.384-0.444,0.555-0.682c0.19-0.264,0.376-0.508,0.695-0.644
		c0.374-0.161,0.516-0.452,0.407-0.89c-0.17-0.681-0.353-1.363-0.59-2.022c-0.735-2.043-1.895-3.812-3.405-5.348
		c-0.35-0.355-0.677-0.733-1.147-0.936c-0.563-0.244-1.04-0.116-1.402,0.39c-0.316,0.443-0.435,0.968-0.576,1.481
		C127.358,17.267,127.328,17.519,127.279,17.767"/>
	<path fill="#1D6C94" d="M206.549,213.525c0.009-0.337,0.029-0.673,0.029-1.013c0-0.79,0.036-1.583-0.02-2.37
		c-0.073-0.995-0.529-1.862-1.032-2.706c-0.569-0.958-1.319-1.745-2.179-2.437c-0.026-0.021-0.053-0.042-0.085-0.057
		c-1.45-0.694-2.89-1.412-4.355-2.077c-1.25-0.569-2.571-0.934-3.913-1.228c-1.308-0.281-2.625-0.502-3.958-0.625
		c-2.216-0.204-4.284,0.27-6.206,1.385c-1.362,0.791-2.565,1.797-3.692,2.891c-1.695,1.646-3.224,3.437-4.509,5.423
		c-1.184,1.829-1.772,3.85-1.944,6.01c-0.148,1.835,0.145,3.606,0.672,5.356c0.305,1.009,0.59,2.025,1.033,2.985
		c0.676,1.471,1.653,2.723,2.8,3.846c0.537,0.527,1.097,1.029,1.665,1.52c1.225,1.065,2.674,1.661,4.241,2.015
		c0.232,0.053,0.466,0.106,0.699,0.161c0.343,0.045,0.686,0.09,1.025,0.135c0.033-0.005,0.065-0.013,0.101-0.016
		c0.443-0.042,0.892-0.054,1.33-0.131c0.888-0.164,1.714-0.534,2.554-0.851c1.073-0.407,1.946-1.068,2.656-1.956
		c1.293-1.615,2.223-3.415,2.686-5.439c0.098-0.417,0.129-0.848,0.167-1.276c0.019-0.22-0.024-0.445-0.024-0.668
		c-0.001-0.357,0.122-0.514,0.47-0.592c0.18-0.039,0.36-0.066,0.543-0.087c1.19-0.139,2.376-0.299,3.518-0.685
		c2.671-0.899,4.417-2.719,5.315-5.375c0.1-0.299,0.17-0.605,0.253-0.907C206.441,214.346,206.495,213.937,206.549,213.525"/>
	<path fill="#1D6C94" d="M185.241,187.851c-0.168,0.059-0.342,0.104-0.506,0.178c-0.36,0.168-0.533,0.502-0.679,0.849
		c-0.187,0.442-0.284,0.907-0.312,1.384c-0.024,0.414,0.045,0.82,0.172,1.213c0.274,0.852,0.649,1.66,1.079,2.437
		c0.339,0.614,0.722,1.205,1.087,1.805c0.221,0.359,0.435,0.722,0.667,1.074c0.325,0.49,0.798,0.784,1.321,1.002
		c0.36,0.148,0.703,0.34,1.1,0.384c0.3,0.032,0.636-0.171,0.76-0.456c0.171-0.394,0.284-0.802,0.314-1.229
		c0.024-0.331-0.006-0.661-0.121-0.974c-0.347-0.937-0.704-1.869-1.05-2.806c-0.339-0.916-0.712-1.817-1.157-2.684
		c-0.264-0.519-0.657-0.922-1.086-1.296c-0.252-0.223-0.51-0.441-0.77-0.656c-0.071-0.058-0.156-0.098-0.236-0.146
		C185.629,187.903,185.436,187.878,185.241,187.851"/>
	<path fill="#1D6C94" d="M162.756,218.853c0.028,0.387,0.088,0.769,0.297,1.106c0.116,0.187,0.26,0.378,0.439,0.502
		c0.584,0.398,1.203,0.743,1.891,0.954c0.422,0.128,0.851,0.144,1.286,0.125c0.959-0.048,1.925-0.081,2.884-0.134
		c0.279-0.017,0.555-0.07,0.823-0.137c0.417-0.104,0.703-0.367,0.803-0.771c0.082-0.345,0.154-0.699,0.171-1.054
		c0.025-0.556-0.223-1.023-0.636-1.411c-0.504-0.475-1.127-0.748-1.776-0.975c-1.674-0.586-3.366-0.587-5.067-0.182
		c-0.219,0.052-0.387,0.191-0.492,0.368c-0.186,0.309-0.341,0.639-0.506,0.961c-0.02,0.036-0.034,0.075-0.049,0.114
		C162.804,218.499,162.778,218.675,162.756,218.853"/>
	<path fill="#1D6C94" d="M170.857,212.631c0.765,0.084,1.482,0.007,2.131-0.406c0.95-0.602,1.315-1.765,0.864-2.784
		c-0.144-0.325-0.381-0.582-0.714-0.74c-1.03-0.487-2.075-0.944-3.186-1.237c-0.857-0.226-1.726-0.352-2.615-0.301
		c-0.58,0.034-0.998,0.301-1.257,0.799c-0.297,0.571-0.45,1.16-0.236,1.797c0.101,0.294,0.26,0.557,0.518,0.74
		c1.023,0.724,2.077,1.392,3.279,1.802C170.036,212.435,170.451,212.521,170.857,212.631"/>
	<path fill="#1D6C94" d="M174.343,195.879c-0.251,1.741,0.063,3.367,0.961,4.867c0.587,0.984,1.476,1.4,2.584,1.369
		c0.417-0.01,0.775-0.186,1.053-0.501c0.147-0.164,0.271-0.353,0.39-0.54c0.132-0.209,0.262-0.402,0.497-0.52
		c0.276-0.138,0.369-0.365,0.267-0.691c-0.159-0.507-0.325-1.014-0.535-1.504c-0.648-1.513-1.604-2.801-2.815-3.895
		c-0.281-0.252-0.545-0.523-0.909-0.656c-0.439-0.16-0.794-0.041-1.046,0.359c-0.22,0.348-0.284,0.751-0.369,1.145
		C174.382,195.499,174.368,195.691,174.343,195.879"/>
	<path fill="#1D6C94" d="M1902.454,587.016c0.093-0.619,0.2-1.236,0.274-1.857c0.178-1.457,0.418-2.91,0.486-4.373
		c0.087-1.848-0.566-3.544-1.307-5.213c-0.839-1.887-2.044-3.5-3.476-4.963c-0.045-0.045-0.092-0.09-0.145-0.124
		c-2.521-1.599-5.014-3.238-7.566-4.782c-2.181-1.321-4.532-2.287-6.939-3.116c-2.345-0.812-4.725-1.507-7.152-2.023
		c-4.036-0.862-7.951-0.446-11.733,1.186c-2.686,1.158-5.12,2.743-7.437,4.511c-3.482,2.663-6.69,5.626-9.497,9.003
		c-2.58,3.103-4.105,6.697-4.898,10.637c-0.678,3.348-0.527,6.677,0.062,10.013c0.34,1.928,0.643,3.859,1.247,5.729
		c0.92,2.854,2.446,5.378,4.312,7.7c0.873,1.085,1.793,2.134,2.73,3.164c2.023,2.226,4.564,3.644,7.37,4.641
		c0.417,0.147,0.835,0.3,1.255,0.451c0.618,0.157,1.237,0.315,1.856,0.473c0.062-0.002,0.125-0.009,0.188-0.007
		c0.826,0.018,1.656,0.097,2.478,0.047c1.674-0.104,3.274-0.605,4.895-1.004c2.061-0.51,3.819-1.54,5.32-3.017
		c2.736-2.691,4.845-5.804,6.143-9.43c0.266-0.745,0.421-1.534,0.582-2.311c0.084-0.403,0.055-0.827,0.104-1.241
		c0.077-0.658,0.336-0.916,0.998-0.984c0.337-0.033,0.68-0.042,1.019-0.042c2.222,0.006,4.441-0.031,6.628-0.487
		c5.118-1.07,8.732-4.039,10.969-8.733c0.249-0.526,0.445-1.075,0.666-1.617C1902.075,588.504,1902.265,587.76,1902.454,587.016"/>
	<path fill="#1D6C94" d="M1868.852,535.048c-0.324,0.071-0.655,0.114-0.969,0.215c-0.703,0.229-1.092,0.807-1.438,1.413
		c-0.444,0.773-0.724,1.611-0.882,2.482c-0.137,0.758-0.095,1.521,0.051,2.271c0.32,1.627,0.829,3.198,1.451,4.725
		c0.49,1.206,1.067,2.378,1.608,3.562c0.327,0.711,0.642,1.427,0.993,2.126c0.488,0.972,1.296,1.62,2.212,2.135
		c0.628,0.351,1.218,0.782,1.938,0.947c0.549,0.125,1.215-0.174,1.504-0.67c0.399-0.688,0.697-1.417,0.849-2.196
		c0.117-0.604,0.135-1.219-0.009-1.82c-0.434-1.803-0.889-3.596-1.32-5.398c-0.422-1.761-0.913-3.502-1.539-5.2
		c-0.373-1.01-1.01-1.84-1.717-2.624c-0.418-0.463-0.842-0.923-1.271-1.374c-0.118-0.125-0.271-0.217-0.406-0.324
		C1869.554,535.228,1869.203,535.138,1868.852,535.048"/>
	<path fill="#1D6C94" d="M1820.626,587.206c-0.032,0.718-0.005,1.435,0.306,2.104c0.173,0.368,0.396,0.753,0.698,1.019
		c0.989,0.862,2.054,1.631,3.275,2.171c0.746,0.332,1.534,0.456,2.34,0.514c1.782,0.125,3.562,0.276,5.345,0.388
		c0.513,0.03,1.035-0.005,1.543-0.07c0.793-0.1,1.377-0.522,1.648-1.245c0.231-0.618,0.438-1.256,0.545-1.902
		c0.17-1.017-0.183-1.935-0.857-2.74c-0.826-0.982-1.913-1.624-3.06-2.185c-2.953-1.446-6.065-1.819-9.288-1.446
		c-0.417,0.05-0.757,0.268-0.991,0.567c-0.411,0.53-0.766,1.104-1.143,1.66c-0.044,0.063-0.076,0.134-0.114,0.201
		C1820.791,586.563,1820.708,586.885,1820.626,587.206"/>
	<path fill="#1D6C94" d="M1836.916,577.525c1.387,0.324,2.725,0.341,4.014-0.278c1.882-0.899,2.809-2.964,2.201-4.936
		c-0.193-0.634-0.575-1.159-1.152-1.524c-1.793-1.123-3.615-2.192-5.598-2.975c-1.527-0.604-3.102-1.027-4.751-1.128
		c-1.073-0.066-1.9,0.334-2.489,1.196c-0.672,0.986-1.084,2.036-0.827,3.257c0.118,0.564,0.354,1.083,0.789,1.478
		c1.722,1.557,3.519,3.018,5.644,4.034C1835.447,576.984,1836.19,577.235,1836.916,577.525"/>
	<path fill="#1D6C94" d="M1847.016,547.44c-0.844,3.15-0.623,6.212,0.699,9.173c0.868,1.944,2.411,2.903,4.463,3.092
		c0.766,0.071,1.468-0.172,2.049-0.692c0.306-0.272,0.574-0.591,0.835-0.911c0.29-0.355,0.572-0.681,1.028-0.845
		c0.541-0.193,0.763-0.592,0.648-1.217c-0.182-0.97-0.381-1.94-0.657-2.886c-0.86-2.931-2.34-5.511-4.331-7.793
		c-0.459-0.527-0.888-1.085-1.532-1.409c-0.77-0.389-1.451-0.25-2.001,0.43c-0.48,0.595-0.689,1.322-0.932,2.029
		C1847.17,546.744,1847.104,547.097,1847.016,547.44"/>
	<path fill="#1D6C94" d="M1858.639,698.016c0.063-0.342,0.136-0.682,0.188-1.025c0.127-0.804,0.288-1.607,0.357-2.416
		c0.084-1.022-0.244-1.977-0.623-2.915c-0.426-1.063-1.062-1.982-1.828-2.823c-0.022-0.027-0.049-0.053-0.078-0.07
		c-1.363-0.938-2.717-1.896-4.101-2.805c-1.183-0.775-2.468-1.357-3.786-1.867c-1.286-0.494-2.59-0.928-3.927-1.263
		c-2.221-0.56-4.401-0.405-6.53,0.424c-1.513,0.589-2.895,1.419-4.213,2.354c-1.986,1.407-3.824,2.987-5.448,4.803
		c-1.492,1.67-2.408,3.633-2.929,5.805c-0.441,1.843-0.424,3.69-0.163,5.555c0.149,1.074,0.279,2.151,0.577,3.199
		c0.453,1.604,1.25,3.032,2.239,4.357c0.461,0.618,0.952,1.217,1.451,1.809c1.077,1.274,2.459,2.109,3.995,2.721
		c0.229,0.09,0.458,0.181,0.686,0.273c0.342,0.1,0.681,0.199,1.021,0.3c0.034,0,0.069-0.003,0.104-0.001
		c0.458,0.027,0.917,0.088,1.373,0.076c0.932-0.023,1.829-0.27,2.734-0.459c1.154-0.242,2.149-0.779,3.01-1.568
		c1.573-1.439,2.803-3.122,3.596-5.107c0.161-0.407,0.264-0.842,0.369-1.269c0.054-0.221,0.047-0.459,0.08-0.687
		c0.057-0.365,0.206-0.5,0.574-0.525c0.188-0.014,0.377-0.011,0.566-0.004c1.231,0.047,2.463,0.072,3.686-0.139
		c2.859-0.492,4.923-2.067,6.256-4.625c0.149-0.286,0.27-0.59,0.402-0.883C1858.397,698.832,1858.518,698.424,1858.639,698.016"/>
	<path fill="#1D6C94" d="M1841.035,668.527c-0.181,0.031-0.365,0.048-0.542,0.1c-0.394,0.111-0.621,0.426-0.826,0.756
		c-0.261,0.418-0.433,0.877-0.537,1.356c-0.092,0.417-0.084,0.842-0.016,1.261c0.144,0.909,0.395,1.79,0.709,2.648
		c0.25,0.679,0.545,1.342,0.821,2.008c0.167,0.402,0.328,0.808,0.509,1.2c0.252,0.55,0.686,0.924,1.185,1.227
		c0.342,0.208,0.66,0.46,1.056,0.565c0.302,0.081,0.677-0.074,0.848-0.342c0.235-0.374,0.416-0.771,0.514-1.201
		c0.077-0.333,0.101-0.674,0.031-1.01c-0.203-1.008-0.421-2.013-0.625-3.02c-0.197-0.988-0.436-1.96-0.75-2.915
		c-0.186-0.567-0.523-1.041-0.898-1.491c-0.224-0.264-0.449-0.527-0.679-0.786c-0.063-0.072-0.146-0.125-0.22-0.187
		L1841.035,668.527z"/>
	<path fill="#1D6C94" d="M1813.253,696.492c-0.033,0.397-0.031,0.797,0.128,1.173c0.089,0.208,0.203,0.427,0.367,0.58
		c0.532,0.497,1.106,0.946,1.772,1.269c0.409,0.199,0.841,0.283,1.287,0.332c0.986,0.105,1.972,0.224,2.957,0.32
		c0.284,0.029,0.574,0.021,0.857-0.008c0.441-0.039,0.774-0.262,0.938-0.658c0.14-0.338,0.269-0.687,0.341-1.043
		c0.113-0.562-0.064-1.077-0.422-1.537c-0.438-0.561-1.027-0.941-1.652-1.273c-1.609-0.859-3.328-1.129-5.123-0.986
		c-0.231,0.019-0.424,0.133-0.561,0.295c-0.239,0.287-0.447,0.598-0.668,0.899c-0.025,0.035-0.045,0.072-0.066,0.108
		C1813.356,696.141,1813.305,696.316,1813.253,696.492"/>
	<path fill="#1D6C94" d="M1822.479,691.449c0.764,0.207,1.505,0.241,2.231-0.074c1.062-0.464,1.616-1.588,1.319-2.693
		c-0.096-0.355-0.297-0.656-0.609-0.869c-0.971-0.659-1.962-1.287-3.043-1.761c-0.837-0.366-1.701-0.632-2.614-0.722
		c-0.595-0.057-1.062,0.148-1.403,0.613c-0.394,0.535-0.643,1.109-0.525,1.793c0.056,0.312,0.176,0.606,0.409,0.834
		c0.923,0.897,1.891,1.742,3.049,2.35C1821.676,691.119,1822.083,691.275,1822.479,691.449"/>
	<path fill="#1D6C94" d="M1828.68,674.965c-0.531,1.729-0.469,3.433,0.205,5.102c0.441,1.094,1.278,1.658,2.413,1.802
		c0.425,0.055,0.816-0.065,1.15-0.343c0.176-0.146,0.33-0.315,0.481-0.488c0.167-0.189,0.329-0.367,0.587-0.449
		c0.304-0.097,0.436-0.312,0.384-0.66c-0.081-0.541-0.173-1.084-0.309-1.613c-0.418-1.643-1.187-3.105-2.246-4.408
		c-0.245-0.303-0.471-0.621-0.82-0.814c-0.421-0.229-0.8-0.165-1.118,0.201c-0.279,0.32-0.41,0.719-0.559,1.107
		C1828.778,674.582,1828.735,674.776,1828.68,674.965"/>
	<path fill="#1D6C94" d="M1931.459,740.996c0.063-0.342,0.136-0.682,0.188-1.025c0.127-0.804,0.288-1.607,0.357-2.416
		c0.084-1.022-0.244-1.977-0.623-2.915c-0.426-1.063-1.062-1.982-1.828-2.823c-0.022-0.027-0.049-0.053-0.078-0.07
		c-1.363-0.938-2.717-1.896-4.101-2.805c-1.183-0.775-2.468-1.357-3.786-1.867c-1.286-0.494-2.59-0.928-3.927-1.263
		c-2.221-0.56-4.401-0.405-6.53,0.424c-1.513,0.589-2.895,1.419-4.213,2.354c-1.986,1.407-3.824,2.987-5.448,4.803
		c-1.492,1.67-2.408,3.633-2.929,5.805c-0.441,1.843-0.424,3.69-0.163,5.555c0.149,1.074,0.279,2.151,0.577,3.199
		c0.453,1.604,1.25,3.032,2.239,4.357c0.461,0.618,0.952,1.217,1.451,1.809c1.077,1.274,2.459,2.109,3.995,2.721
		c0.229,0.09,0.458,0.181,0.686,0.273c0.342,0.1,0.681,0.199,1.021,0.3c0.034,0,0.069-0.003,0.104-0.001
		c0.458,0.027,0.917,0.088,1.373,0.076c0.932-0.023,1.829-0.27,2.734-0.459c1.154-0.242,2.149-0.779,3.01-1.568
		c1.573-1.439,2.803-3.122,3.596-5.107c0.161-0.407,0.264-0.842,0.369-1.269c0.054-0.221,0.047-0.459,0.08-0.687
		c0.057-0.365,0.206-0.5,0.574-0.525c0.188-0.014,0.377-0.011,0.566-0.004c1.231,0.047,2.463,0.072,3.686-0.139
		c2.859-0.492,4.923-2.067,6.256-4.625c0.149-0.286,0.27-0.59,0.402-0.883C1931.218,741.812,1931.338,741.404,1931.459,740.996"/>
	<path fill="#1D6C94" d="M1913.855,711.508c-0.181,0.031-0.365,0.048-0.542,0.1c-0.394,0.111-0.621,0.426-0.826,0.756
		c-0.261,0.418-0.433,0.877-0.537,1.356c-0.092,0.417-0.084,0.842-0.016,1.261c0.144,0.909,0.395,1.79,0.709,2.648
		c0.25,0.679,0.545,1.342,0.821,2.008c0.167,0.402,0.328,0.808,0.509,1.2c0.252,0.55,0.686,0.924,1.185,1.227
		c0.342,0.208,0.66,0.46,1.056,0.565c0.302,0.081,0.677-0.074,0.848-0.342c0.235-0.374,0.416-0.771,0.514-1.201
		c0.077-0.333,0.101-0.674,0.031-1.01c-0.203-1.008-0.421-2.013-0.625-3.02c-0.197-0.988-0.436-1.96-0.75-2.915
		c-0.186-0.567-0.523-1.041-0.898-1.491c-0.224-0.264-0.449-0.527-0.679-0.786c-0.063-0.072-0.146-0.125-0.22-0.187
		L1913.855,711.508z"/>
	<path fill="#1D6C94" d="M1886.073,739.473c-0.033,0.397-0.031,0.797,0.128,1.173c0.089,0.208,0.203,0.427,0.367,0.58
		c0.532,0.497,1.106,0.946,1.772,1.269c0.409,0.199,0.841,0.283,1.287,0.332c0.986,0.105,1.972,0.224,2.957,0.32
		c0.284,0.029,0.574,0.021,0.857-0.008c0.441-0.039,0.774-0.262,0.938-0.658c0.14-0.338,0.269-0.687,0.341-1.043
		c0.113-0.562-0.064-1.077-0.422-1.537c-0.438-0.561-1.027-0.941-1.652-1.273c-1.609-0.859-3.328-1.129-5.123-0.986
		c-0.231,0.019-0.424,0.133-0.561,0.295c-0.239,0.287-0.447,0.598-0.668,0.899c-0.025,0.035-0.045,0.072-0.066,0.108
		C1886.177,739.121,1886.125,739.297,1886.073,739.473"/>
	<path fill="#1D6C94" d="M1895.3,734.43c0.764,0.207,1.505,0.241,2.231-0.074c1.062-0.464,1.616-1.588,1.319-2.693
		c-0.096-0.355-0.297-0.656-0.609-0.869c-0.971-0.659-1.962-1.287-3.043-1.761c-0.837-0.366-1.701-0.632-2.614-0.722
		c-0.595-0.057-1.062,0.148-1.403,0.613c-0.394,0.535-0.643,1.109-0.525,1.793c0.056,0.312,0.176,0.606,0.409,0.834
		c0.923,0.897,1.891,1.742,3.049,2.35C1894.496,734.1,1894.903,734.256,1895.3,734.43"/>
	<path fill="#1D6C94" d="M1901.5,717.945c-0.531,1.729-0.469,3.433,0.205,5.102c0.441,1.094,1.278,1.658,2.413,1.802
		c0.425,0.055,0.816-0.065,1.15-0.343c0.176-0.146,0.33-0.315,0.481-0.488c0.167-0.189,0.329-0.367,0.587-0.449
		c0.304-0.097,0.436-0.312,0.384-0.66c-0.081-0.541-0.173-1.084-0.309-1.613c-0.418-1.643-1.187-3.105-2.246-4.408
		c-0.245-0.303-0.471-0.621-0.82-0.814c-0.421-0.229-0.8-0.165-1.118,0.201c-0.279,0.32-0.41,0.719-0.559,1.107
		C1901.599,717.562,1901.556,717.757,1901.5,717.945"/>
	<path fill="#1D6C94" d="M51.192,665.396c0.417-0.155,0.837-0.305,1.249-0.474c0.965-0.395,1.951-0.751,2.883-1.216
		c1.176-0.589,2.001-1.583,2.781-2.62c0.879-1.177,1.463-2.485,1.874-3.882c0.012-0.044,0.023-0.088,0.026-0.133
		c0.117-2.118,0.269-4.235,0.341-6.355c0.063-1.811-0.152-3.607-0.474-5.39c-0.311-1.736-0.704-3.454-1.227-5.142
		c-0.867-2.804-2.483-5.09-4.81-6.872c-1.65-1.264-3.48-2.225-5.381-3.047c-2.861-1.239-5.814-2.203-8.885-2.77
		c-2.821-0.525-5.583-0.225-8.304,0.648c-2.313,0.742-4.326,1.992-6.192,3.517c-1.079,0.879-2.173,1.739-3.123,2.763
		c-1.452,1.562-2.489,3.384-3.281,5.351c-0.372,0.917-0.701,1.854-1.016,2.792c-0.681,2.028-0.677,4.099-0.322,6.185
		c0.053,0.312,0.104,0.622,0.156,0.936c0.118,0.439,0.234,0.877,0.351,1.317c0.022,0.037,0.05,0.073,0.07,0.113
		c0.275,0.52,0.514,1.063,0.83,1.553c0.647,1.006,1.513,1.822,2.323,2.689c1.032,1.103,2.282,1.838,3.719,2.256
		c2.62,0.765,5.283,0.992,7.985,0.539c0.554-0.094,1.098-0.27,1.637-0.439c0.279-0.089,0.532-0.254,0.805-0.367
		c0.435-0.182,0.685-0.107,0.958,0.277c0.139,0.198,0.261,0.407,0.379,0.618c0.769,1.38,1.561,2.746,2.603,3.944
		c2.441,2.804,5.539,4.019,9.228,3.775c0.413-0.026,0.824-0.096,1.234-0.146C50.139,665.676,50.666,665.537,51.192,665.396"/>
	<path fill="#1D6C94" d="M71.783,626.5c-0.156-0.177-0.298-0.366-0.471-0.528c-0.386-0.356-0.879-0.396-1.376-0.401
		c-0.634-0.007-1.25,0.11-1.848,0.313c-0.515,0.18-0.976,0.47-1.39,0.821c-0.899,0.761-1.697,1.624-2.429,2.539
		c-0.579,0.725-1.106,1.489-1.652,2.236c-0.329,0.45-0.665,0.894-0.976,1.354c-0.433,0.641-0.556,1.366-0.557,2.115
		c-0.001,0.511-0.064,1.027,0.084,1.53c0.114,0.385,0.529,0.694,0.939,0.702c0.564,0.009,1.12-0.06,1.657-0.235
		c0.415-0.138,0.803-0.341,1.126-0.64c0.968-0.895,1.924-1.8,2.892-2.692c0.948-0.873,1.858-1.783,2.693-2.761
		c0.498-0.583,0.792-1.266,1.033-1.976c0.143-0.421,0.28-0.843,0.412-1.268c0.036-0.116,0.041-0.242,0.06-0.363
		C71.915,626.997,71.85,626.749,71.783,626.5"/>
	<path fill="#1D6C94" d="M22.669,614.673c-0.458,0.229-0.894,0.494-1.199,0.921c-0.169,0.234-0.331,0.506-0.391,0.787
		c-0.192,0.912-0.3,1.84-0.212,2.786c0.054,0.578,0.25,1.11,0.496,1.632c0.54,1.147,1.063,2.306,1.615,3.45
		c0.156,0.329,0.362,0.642,0.577,0.934c0.339,0.457,0.804,0.673,1.345,0.59c0.463-0.072,0.932-0.162,1.371-0.32
		c0.69-0.249,1.137-0.785,1.402-1.484c0.324-0.853,0.346-1.751,0.296-2.657c-0.129-2.335-0.978-4.396-2.328-6.266
		c-0.175-0.244-0.426-0.379-0.696-0.418c-0.472-0.072-0.95-0.093-1.426-0.135c-0.055-0.005-0.11-0.002-0.166-0.001
		C23.125,614.552,22.897,614.611,22.669,614.673"/>
	<path fill="#1D6C94" d="M34.332,621.423c0.28,0.974,0.736,1.81,1.566,2.396c1.212,0.854,2.814,0.714,3.827-0.348
		c0.327-0.341,0.521-0.76,0.546-1.244c0.075-1.503,0.107-3.006-0.095-4.506c-0.155-1.158-0.439-2.282-0.95-3.342
		c-0.333-0.689-0.866-1.063-1.606-1.129c-0.845-0.076-1.64,0.034-2.31,0.615c-0.308,0.27-0.548,0.597-0.642,1.005
		c-0.369,1.606-0.652,3.229-0.547,4.901C34.157,620.323,34.261,620.873,34.332,621.423"/>
	<path fill="#1D6C94" d="M56.512,617.249c-2.248,0.567-4.073,1.769-5.452,3.618c-0.904,1.214-0.966,2.503-0.369,3.843
		c0.224,0.5,0.617,0.851,1.142,1.03c0.275,0.096,0.566,0.153,0.854,0.203c0.321,0.057,0.621,0.117,0.883,0.347
		c0.308,0.267,0.631,0.267,0.978-0.021c0.539-0.449,1.074-0.91,1.564-1.411c1.52-1.551,2.609-3.364,3.333-5.392
		c0.168-0.471,0.366-0.929,0.343-1.441c-0.026-0.612-0.348-0.987-0.961-1.092c-0.537-0.092-1.062,0.029-1.584,0.125
		C56.995,617.103,56.756,617.184,56.512,617.249"/>
	<path fill="#1D6C94" d="M260.919,730.27c0.444,0.026,0.889,0.059,1.334,0.069c1.042,0.028,2.088,0.1,3.128,0.05
		c1.314-0.065,2.47-0.643,3.601-1.277c1.28-0.723,2.34-1.686,3.28-2.797c0.029-0.036,0.057-0.071,0.077-0.111
		c0.96-1.892,1.953-3.768,2.874-5.679c0.787-1.633,1.314-3.363,1.738-5.124c0.416-1.715,0.749-3.445,0.949-5.2
		c0.337-2.915-0.221-5.659-1.631-8.228c-1.001-1.821-2.289-3.438-3.697-4.957c-2.119-2.287-4.434-4.359-7.015-6.114
		c-2.372-1.618-5.02-2.456-7.862-2.754c-2.415-0.252-4.761,0.081-7.083,0.724c-1.342,0.369-2.69,0.716-3.971,1.27
		c-1.959,0.846-3.643,2.094-5.159,3.575c-0.71,0.689-1.389,1.414-2.056,2.146c-1.44,1.582-2.271,3.479-2.787,5.53
		c-0.077,0.307-0.156,0.611-0.234,0.919c-0.069,0.45-0.14,0.896-0.21,1.348c0.006,0.043,0.016,0.087,0.019,0.132
		c0.042,0.586,0.042,1.18,0.134,1.755c0.187,1.182,0.649,2.277,1.042,3.397c0.5,1.425,1.349,2.603,2.495,3.563
		c2.09,1.756,4.435,3.037,7.092,3.712c0.544,0.137,1.113,0.195,1.675,0.257c0.291,0.031,0.589-0.019,0.885-0.012
		c0.472,0.01,0.669,0.178,0.764,0.64c0.048,0.237,0.075,0.479,0.098,0.719c0.147,1.572,0.322,3.143,0.792,4.659
		c1.104,3.55,3.45,5.909,6.925,7.174c0.389,0.143,0.793,0.244,1.188,0.363C259.842,730.102,260.381,730.187,260.919,730.27"/>
	<path fill="#1D6C94" d="M295.438,702.97c-0.072-0.225-0.125-0.455-0.218-0.673c-0.209-0.482-0.645-0.718-1.098-0.922
		c-0.577-0.262-1.189-0.403-1.818-0.458c-0.542-0.043-1.082,0.036-1.602,0.191c-1.131,0.334-2.208,0.803-3.247,1.345
		c-0.821,0.431-1.612,0.918-2.414,1.381c-0.481,0.28-0.968,0.551-1.438,0.847c-0.655,0.412-1.06,1.026-1.362,1.712
		c-0.208,0.467-0.473,0.914-0.54,1.435c-0.051,0.397,0.204,0.848,0.577,1.021c0.513,0.235,1.048,0.396,1.61,0.451
		c0.436,0.042,0.872,0.012,1.289-0.131c1.246-0.429,2.486-0.872,3.73-1.299c1.221-0.417,2.419-0.884,3.578-1.441
		c0.691-0.333,1.236-0.839,1.742-1.392c0.301-0.328,0.597-0.658,0.888-0.994c0.08-0.092,0.135-0.205,0.202-0.309
		C295.358,703.478,295.399,703.225,295.438,702.97"/>
	<path fill="#1D6C94" d="M255.256,672.354c-0.511,0.024-1.018,0.092-1.469,0.359c-0.25,0.146-0.508,0.329-0.675,0.563
		c-0.543,0.757-1.017,1.562-1.317,2.464c-0.183,0.551-0.218,1.117-0.204,1.693c0.032,1.268,0.044,2.539,0.088,3.809
		c0.01,0.364,0.072,0.732,0.152,1.087c0.126,0.555,0.464,0.939,0.993,1.082c0.454,0.121,0.918,0.227,1.384,0.259
		c0.731,0.051,1.357-0.26,1.882-0.793c0.64-0.649,1.022-1.463,1.341-2.313c0.823-2.188,0.878-4.417,0.394-6.672
		c-0.062-0.294-0.237-0.519-0.468-0.663c-0.403-0.256-0.832-0.468-1.251-0.698c-0.049-0.026-0.1-0.046-0.151-0.067
		C255.721,672.426,255.489,672.389,255.256,672.354"/>
	<path fill="#1D6C94" d="M263.209,683.231c-0.136,1.004-0.056,1.952,0.468,2.823c0.764,1.27,2.287,1.787,3.642,1.224
		c0.437-0.18,0.784-0.485,1.002-0.918c0.674-1.346,1.309-2.708,1.728-4.163c0.325-1.122,0.518-2.266,0.478-3.441
		c-0.027-0.765-0.364-1.322-1.016-1.68c-0.742-0.41-1.514-0.63-2.361-0.368c-0.391,0.123-0.743,0.325-0.993,0.661
		c-0.985,1.321-1.898,2.693-2.476,4.266C263.492,682.154,263.365,682.699,263.209,683.231"/>
	<path fill="#1D6C94" d="M285.19,688.349c-2.286-0.387-4.44-0.022-6.448,1.114c-1.317,0.747-1.893,1.901-1.887,3.368
		c0.003,0.548,0.221,1.027,0.63,1.403c0.213,0.198,0.457,0.368,0.7,0.53c0.271,0.182,0.521,0.357,0.669,0.674
		c0.173,0.367,0.47,0.498,0.903,0.374c0.674-0.194,1.349-0.4,2-0.661c2.017-0.807,3.744-2.028,5.224-3.592
		c0.343-0.362,0.708-0.702,0.895-1.181c0.223-0.571,0.079-1.044-0.439-1.387c-0.455-0.3-0.983-0.4-1.5-0.523
		C285.691,688.41,285.439,688.388,285.19,688.349"/>
	<path fill="#1D6C94" d="M92.378,770.987c0.622-0.067,1.246-0.12,1.865-0.206c1.455-0.198,2.921-0.336,4.354-0.641
		c1.808-0.387,3.282-1.448,4.708-2.588c1.612-1.292,2.866-2.868,3.917-4.625c0.032-0.055,0.065-0.111,0.084-0.17
		c0.905-2.845,1.857-5.673,2.701-8.533c0.725-2.443,1.062-4.965,1.252-7.504c0.188-2.475,0.256-4.952,0.139-7.432
		c-0.192-4.123-1.589-7.805-4.129-11.048c-1.802-2.302-3.954-4.255-6.253-6.044c-3.459-2.692-7.141-5.043-11.12-6.898
		c-3.655-1.707-7.521-2.269-11.532-2.035c-3.41,0.195-6.592,1.188-9.668,2.604c-1.778,0.819-3.57,1.603-5.225,2.661
		c-2.525,1.616-4.58,3.733-6.351,6.129c-0.829,1.119-1.607,2.276-2.366,3.444c-1.64,2.522-2.364,5.341-2.615,8.308
		c-0.037,0.441-0.078,0.884-0.118,1.327c0.005,0.64,0.009,1.278,0.015,1.917c0.019,0.059,0.04,0.117,0.055,0.18
		c0.191,0.804,0.327,1.627,0.584,2.408c0.526,1.592,1.419,3.013,2.215,4.478c1.018,1.864,2.461,3.303,4.27,4.379
		c3.299,1.964,6.845,3.212,10.682,3.545c0.788,0.067,1.591,0.017,2.383-0.023c0.41-0.021,0.813-0.157,1.226-0.216
		c0.657-0.092,0.972,0.094,1.207,0.715c0.118,0.318,0.213,0.646,0.299,0.975c0.559,2.15,1.157,4.289,2.155,6.287
		c2.336,4.678,6.127,7.42,11.234,8.389c0.572,0.107,1.154,0.156,1.733,0.234C90.842,770.999,91.61,770.992,92.378,770.987"/>
	<path fill="#1D6C94" d="M134.101,725.281c-0.151-0.295-0.277-0.604-0.455-0.883c-0.399-0.621-1.058-0.851-1.732-1.031
		c-0.86-0.234-1.742-0.291-2.625-0.222c-0.768,0.06-1.495,0.294-2.186,0.626c-1.49,0.723-2.881,1.614-4.198,2.604
		c-1.043,0.782-2.029,1.637-3.037,2.461c-0.604,0.498-1.218,0.984-1.804,1.501c-0.815,0.72-1.238,1.665-1.503,2.683
		c-0.181,0.697-0.448,1.377-0.425,2.115c0.02,0.562,0.479,1.131,1.031,1.284c0.768,0.212,1.548,0.315,2.34,0.263
		c0.613-0.041,1.214-0.179,1.759-0.472c1.633-0.877,3.251-1.772,4.885-2.648c1.597-0.855,3.155-1.772,4.638-2.81
		c0.884-0.618,1.523-1.445,2.104-2.328c0.341-0.521,0.677-1.047,1.005-1.579c0.09-0.146,0.141-0.317,0.209-0.475
		C134.104,726.006,134.103,725.645,134.101,725.281"/>
	<path fill="#1D6C94" d="M71.399,691.895c-0.703,0.15-1.39,0.359-1.957,0.83c-0.312,0.26-0.628,0.573-0.808,0.934
		c-0.582,1.176-1.055,2.4-1.268,3.72c-0.131,0.807-0.053,1.601,0.099,2.395c0.331,1.755,0.637,3.515,0.983,5.267
		c0.1,0.504,0.267,1,0.459,1.475c0.299,0.741,0.855,1.199,1.624,1.277c0.655,0.068,1.325,0.104,1.978,0.045
		c1.027-0.094,1.824-0.669,2.432-1.525c0.741-1.05,1.086-2.264,1.337-3.515c0.647-3.224,0.218-6.329-0.963-9.351
		c-0.153-0.393-0.45-0.664-0.8-0.814c-0.617-0.264-1.263-0.46-1.896-0.684c-0.073-0.025-0.149-0.04-0.226-0.06
		C72.063,691.891,71.73,691.892,71.399,691.895"/>
	<path fill="#1D6C94" d="M84.901,705.189c0.039,1.424,0.364,2.722,1.288,3.812c1.35,1.591,3.582,1.963,5.334,0.874
		c0.564-0.349,0.976-0.851,1.182-1.502c0.63-2.019,1.201-4.054,1.454-6.169c0.197-1.632,0.206-3.261-0.115-4.882
		c-0.21-1.056-0.808-1.754-1.789-2.104c-1.126-0.4-2.246-0.531-3.361,0.027c-0.517,0.257-0.957,0.617-1.229,1.139
		c-1.067,2.06-2.023,4.17-2.467,6.482C85.05,703.631,84.998,704.414,84.901,705.189"/>
	<path fill="#1D6C94" d="M116.565,707.312c-3.261-0.017-6.167,0.975-8.693,3.007c-1.66,1.333-2.196,3.07-1.857,5.102
		c0.127,0.759,0.54,1.376,1.191,1.806c0.341,0.227,0.718,0.406,1.094,0.576c0.415,0.189,0.803,0.38,1.078,0.78
		c0.325,0.474,0.766,0.587,1.341,0.317c0.892-0.422,1.78-0.86,2.625-1.369c2.615-1.576,4.735-3.662,6.436-6.169
		c0.395-0.578,0.824-1.134,0.975-1.84c0.18-0.844-0.127-1.466-0.924-1.825c-0.698-0.314-1.455-0.332-2.201-0.387
		C117.277,707.284,116.92,707.311,116.565,707.312"/>
	<path fill="#1D6C94" d="M191.422,743.74c0.352-0.059,0.704-0.105,1.052-0.174c0.818-0.158,1.647-0.281,2.45-0.499
		c1.014-0.273,1.818-0.922,2.593-1.612c0.874-0.781,1.538-1.712,2.08-2.744c0.018-0.031,0.032-0.062,0.04-0.098
		c0.428-1.641,0.882-3.275,1.273-4.924c0.334-1.408,0.451-2.849,0.479-4.295c0.03-1.411-0.008-2.818-0.15-4.221
		c-0.235-2.332-1.142-4.377-2.681-6.141c-1.092-1.25-2.373-2.293-3.732-3.235c-2.045-1.423-4.205-2.642-6.519-3.574
		c-2.127-0.854-4.337-1.056-6.605-0.8c-1.928,0.217-3.702,0.877-5.406,1.773c-0.981,0.52-1.975,1.02-2.881,1.67
		c-1.384,0.994-2.483,2.26-3.414,3.672c-0.437,0.66-0.844,1.342-1.237,2.028c-0.854,1.479-1.177,3.103-1.229,4.79
		c-0.007,0.252-0.017,0.507-0.025,0.759c0.024,0.361,0.045,0.724,0.067,1.085c0.012,0.034,0.026,0.068,0.037,0.1
		c0.132,0.454,0.231,0.915,0.404,1.35c0.349,0.887,0.896,1.667,1.396,2.473c0.632,1.028,1.496,1.798,2.554,2.354
		c1.931,1.011,3.981,1.61,6.167,1.683c0.453,0.013,0.904-0.039,1.353-0.087c0.231-0.026,0.458-0.114,0.688-0.16
		c0.372-0.073,0.555,0.024,0.708,0.369c0.077,0.179,0.14,0.358,0.199,0.544c0.385,1.202,0.788,2.396,1.416,3.5
		c1.469,2.582,3.703,4.021,6.631,4.414c0.326,0.045,0.659,0.055,0.988,0.079C190.553,743.793,190.988,743.768,191.422,743.74"/>
	<path fill="#1D6C94" d="M213.689,716.531c-0.093-0.162-0.176-0.335-0.287-0.487c-0.244-0.339-0.624-0.449-1.013-0.53
		c-0.494-0.107-0.998-0.111-1.494-0.047c-0.434,0.059-0.84,0.213-1.22,0.424c-0.826,0.453-1.585,1.004-2.304,1.606
		c-0.566,0.474-1.1,0.989-1.646,1.489c-0.328,0.299-0.663,0.594-0.979,0.905c-0.44,0.433-0.65,0.983-0.771,1.569
		c-0.081,0.398-0.212,0.794-0.175,1.211c0.027,0.318,0.306,0.627,0.624,0.697c0.441,0.098,0.889,0.131,1.336,0.077
		c0.344-0.04,0.683-0.137,0.983-0.321c0.897-0.547,1.789-1.105,2.688-1.652c0.881-0.535,1.736-1.104,2.546-1.738
		c0.48-0.377,0.819-0.865,1.121-1.383c0.178-0.307,0.353-0.615,0.522-0.928c0.047-0.084,0.068-0.184,0.103-0.273
		C213.714,716.944,213.701,716.737,213.689,716.531"/>
	<path fill="#1D6C94" d="M177.097,699.516c-0.395,0.105-0.779,0.246-1.086,0.529c-0.169,0.159-0.339,0.348-0.431,0.557
		c-0.294,0.686-0.525,1.393-0.605,2.148c-0.047,0.463,0.021,0.908,0.13,1.354c0.242,0.985,0.47,1.974,0.722,2.956
		c0.069,0.285,0.182,0.561,0.305,0.824c0.191,0.412,0.521,0.654,0.959,0.675c0.375,0.019,0.756,0.019,1.125-0.034
		c0.578-0.086,1.014-0.436,1.332-0.941c0.39-0.617,0.547-1.318,0.65-2.035c0.268-1.849-0.071-3.596-0.835-5.273
		c-0.096-0.217-0.272-0.363-0.477-0.436c-0.359-0.133-0.731-0.225-1.095-0.331c-0.045-0.015-0.088-0.02-0.131-0.026
		C177.472,699.491,177.285,699.503,177.097,699.516"/>
	<path fill="#1D6C94" d="M185.163,706.643c0.065,0.807,0.291,1.533,0.849,2.123c0.813,0.861,2.09,1.004,3.053,0.334
		c0.308-0.217,0.525-0.513,0.621-0.889c0.298-1.166,0.56-2.338,0.64-3.543c0.06-0.934,0.016-1.859-0.217-2.768
		c-0.152-0.592-0.511-0.971-1.079-1.139c-0.649-0.191-1.291-0.233-1.906,0.119c-0.285,0.16-0.523,0.378-0.661,0.684
		c-0.543,1.2-1.021,2.424-1.203,3.753C185.2,705.753,185.194,706.201,185.163,706.643"/>
	<path fill="#1D6C94" d="M203.189,706.877c-1.848,0.09-3.467,0.741-4.839,1.972c-0.899,0.808-1.152,1.81-0.896,2.952
		c0.094,0.425,0.348,0.762,0.73,0.986c0.2,0.119,0.42,0.209,0.638,0.293c0.242,0.096,0.47,0.193,0.635,0.41
		c0.202,0.26,0.453,0.309,0.77,0.139c0.495-0.266,0.986-0.544,1.448-0.858c1.437-0.973,2.576-2.222,3.463-3.696
		c0.206-0.34,0.431-0.668,0.497-1.073c0.076-0.483-0.119-0.827-0.582-1.008c-0.406-0.155-0.835-0.142-1.26-0.149
		C203.591,706.84,203.392,706.863,203.189,706.877"/>
</g>
</svg>
